<svg xmlns="http://www.w3.org/2000/svg" width="53.109" height="77" viewBox="0 0 53.109 77"><g transform="translate(-21.875 -4.688)"><path d="M52.655,9.375H51.328a1.328,1.328,0,0,0,0,2.655h1.328a1.328,1.328,0,1,0,0-2.655Z" transform="translate(-4.228 -0.705)"/><path d="M43.9,9.375H37.265a1.328,1.328,0,0,0,0,2.655H43.9a1.328,1.328,0,1,0,0-2.655Z" transform="translate(-2.114 -0.705)"/><path d="M44.607,89.215a3.983,3.983,0,1,0-3.983-3.983,3.984,3.984,0,0,0,3.983,3.983Zm0-5.31a1.328,1.328,0,1,1-1.328,1.328,1.327,1.327,0,0,1,1.328-1.328Z" transform="translate(-2.819 -11.511)"/><path d="M54.453,87.03h2.655a1.328,1.328,0,1,0,0-2.655H54.453a1.328,1.328,0,1,0,0,2.655Z" transform="translate(-4.698 -11.981)"/><path d="M32.577,87.03h2.655a1.328,1.328,0,1,0,0-2.655H32.577a1.328,1.328,0,1,0,0,2.655Z" transform="translate(-1.409 -11.981)"/><path d="M69.668,40.532A19.861,19.861,0,0,0,61.7,24.651V11.325a6.645,6.645,0,0,0-6.638-6.638H28.513a6.645,6.645,0,0,0-6.638,6.638V75.05a6.645,6.645,0,0,0,6.638,6.638H55.065A6.645,6.645,0,0,0,61.7,75.05V56.413A19.862,19.862,0,0,0,69.668,40.532Zm-2.655,0a17.281,17.281,0,1,1-5.062-12.2,17.26,17.26,0,0,1,5.062,12.2ZM59.047,58.143v7.614H24.53V15.309H59.047v7.614a20.224,20.224,0,0,0-9.294-2.3,19.914,19.914,0,0,0,0,39.828,20.186,20.186,0,0,0,9.294-2.3ZM24.53,11.325a3.982,3.982,0,0,1,3.983-3.983H55.065a3.982,3.982,0,0,1,3.983,3.983v1.328H24.53ZM59.047,75.05a3.982,3.982,0,0,1-3.983,3.983H28.513A3.982,3.982,0,0,1,24.53,75.05V68.412H59.047Z"/><path d="M74.086,24.7A1.327,1.327,0,0,0,72.32,26.68a22.583,22.583,0,0,1,6.638,23.08,1.33,1.33,0,0,0,2.556.737,25.244,25.244,0,0,0-7.421-25.8Z" transform="translate(-7.517 -2.958)"/><path d="M78.632,59.554a1.326,1.326,0,0,0-1.812.485,22.558,22.558,0,0,1-4.5,5.523,1.327,1.327,0,0,0,1.766,1.981,25.136,25.136,0,0,0,5.032-6.177,1.323,1.323,0,0,0-.485-1.812Z" transform="translate(-7.517 -8.222)"/><path d="M60.892,50.353V42.106a7.974,7.974,0,0,0-6.638-7.846V34.14a1.328,1.328,0,1,0-2.655,0v.119a7.974,7.974,0,0,0-6.638,7.846v8.248a3.319,3.319,0,0,0,1.328,6.356H59.565a3.319,3.319,0,0,0,1.328-6.356ZM47.617,42.106a5.31,5.31,0,0,1,10.621,0v7.966H54.254V47.416a1.328,1.328,0,0,0-2.655,0v2.655H47.617ZM59.564,54.053H46.289a.664.664,0,1,1,0-1.328H59.564a.664.664,0,0,1,0,1.328Z" transform="translate(-3.173 -4.228)"/><path d="M40.39,40.625a1.327,1.327,0,0,0-1.328,1.328v3.983a1.328,1.328,0,1,0,2.655,0V41.953a1.326,1.326,0,0,0-1.328-1.328Z" transform="translate(-2.584 -5.403)"/><path d="M67.188,41.953v3.983a1.328,1.328,0,1,0,2.655,0V41.953a1.328,1.328,0,1,0-2.655,0Z" transform="translate(-6.813 -5.403)"/></g></svg>