<svg xmlns="http://www.w3.org/2000/svg" width="77" height="77" viewBox="0 0 77 77"><path d="M71.749,66.247A5.257,5.257,0,0,0,77,61V7.52A7.528,7.528,0,0,0,69.48,0H7.52A7.528,7.528,0,0,0,0,7.52V61a5.257,5.257,0,0,0,5.251,5.251H6.918v7.745H1.5A1.5,1.5,0,0,0,1.5,77H75.5a1.5,1.5,0,0,0,0-3.008H70.082V66.247ZM3.008,7.52A4.517,4.517,0,0,1,7.52,3.008H69.48A4.517,4.517,0,0,1,73.992,7.52v3.309H3.159c-.051,0-.1,0-.151.008ZM16.543,73.992H9.926V60.457h6.617Zm16.844,0H26.77V43.829h6.617Zm16.844,0H43.613V56.547H50.23ZM68.578,38.575H58.953a1.5,1.5,0,0,0-1.5,1.5v7.595a1.5,1.5,0,0,0,3.008,0V41.583h6.617V73.992H60.457v-16.2a1.5,1.5,0,0,0-3.008,0v16.2H53.238V55.043a1.5,1.5,0,0,0-1.5-1.5H42.109a1.5,1.5,0,0,0-1.5,1.5V73.992H36.395V42.325a1.5,1.5,0,0,0-1.5-1.5H25.266a1.5,1.5,0,0,0-1.5,1.5V73.992H19.551V58.953a1.5,1.5,0,0,0-1.5-1.5H8.422a1.5,1.5,0,0,0-1.5,1.5V63.24H5.251A2.246,2.246,0,0,1,3.008,61V13.828c.05,0,.1.008.151.008H73.992V61a2.246,2.246,0,0,1-2.243,2.244H70.082V40.079A1.5,1.5,0,0,0,68.578,38.575Z"/><g transform="translate(31.893 5.414)"><path d="M247.547,36H213.569a1.5,1.5,0,0,0,0,3.008h33.978a1.5,1.5,0,1,0,0-3.008Z" transform="translate(-212.065 -36)"/></g><g transform="translate(14.137 5.414)"><path d="M96.567,36.441a1.5,1.5,0,1,0,.441,1.063A1.515,1.515,0,0,0,96.567,36.441Z" transform="translate(-94 -36)"/></g><g transform="translate(8.121 5.414)"><path d="M56.567,36.441a1.5,1.5,0,1,0,.441,1.063A1.515,1.515,0,0,0,56.567,36.441Z" transform="translate(-54 -36)"/></g><g transform="translate(20.152 5.414)"><path d="M136.567,36.441a1.5,1.5,0,1,0,.441,1.063A1.513,1.513,0,0,0,136.567,36.441Z" transform="translate(-134 -36)"/></g><g transform="translate(57.449 51.53)"><path d="M384.567,343.081a1.5,1.5,0,1,0,.441,1.063A1.509,1.509,0,0,0,384.567,343.081Z" transform="translate(-382 -342.64)"/></g><g transform="translate(7.72 20.444)"><path d="M107.381,135.939a5.41,5.41,0,0,0-4.381,8.59l-9.99,9.99a5.4,5.4,0,0,0-4.993-.122L77.587,143.966a5.414,5.414,0,1,0-9.343.233l-8.881,8.881a5.418,5.418,0,1,0,2.127,2.127l8.987-8.987a5.4,5.4,0,0,0,4.983-.127l10.329,10.329a5.414,5.414,0,1,0,9.349.224l10.257-10.257a5.413,5.413,0,1,0,1.986-10.449ZM56.75,160.226a2.406,2.406,0,1,1,2.406-2.406A2.409,2.409,0,0,1,56.75,160.226Zm16.1-16.467a2.406,2.406,0,1,1,2.406-2.406A2.409,2.409,0,0,1,72.847,143.759ZM90.4,161.665a2.406,2.406,0,1,1,2.406-2.406A2.409,2.409,0,0,1,90.4,161.665Zm16.983-17.906a2.406,2.406,0,1,1,2.406-2.406A2.409,2.409,0,0,1,107.381,143.759Z" transform="translate(-51.336 -135.939)"/></g><g transform="translate(19.74 18.952)"><path d="M133.827,126.461a1.5,1.5,0,1,0,.441,1.063A1.518,1.518,0,0,0,133.827,126.461Z" transform="translate(-131.26 -126.02)"/></g><g transform="translate(6.918 18.952)"><path d="M54.723,126.021H47.5a1.5,1.5,0,0,0,0,3.008h7.219a1.5,1.5,0,0,0,0-3.008Z" transform="translate(-46 -126.021)"/></g><g transform="translate(6.918 26.171)"><path d="M54.723,174.021H47.5a1.5,1.5,0,0,0,0,3.008h7.219a1.5,1.5,0,0,0,0-3.008Z" transform="translate(-46 -174.021)"/></g></svg>