<svg xmlns="http://www.w3.org/2000/svg" width="72.568" height="77" viewBox="0 0 72.568 77"><g transform="translate(-14.706)"><path d="M84.492,2.47H79.551a1.13,1.13,0,0,0,0,2.26h4.941a.523.523,0,0,1,.522.522v30.34a.523.523,0,0,1-.522.522H38.254v-2.26H68.772a1.13,1.13,0,0,0,0-2.26H38.254V26.8a5.495,5.495,0,0,0-10.989,0v4.794H24.65a4.457,4.457,0,0,0-3.164-3.164V20.4a1.13,1.13,0,0,0-2.26,0v9.014a1.13,1.13,0,0,0,1.13,1.13,2.182,2.182,0,0,1,2.179,2.179,1.13,1.13,0,0,0,1.13,1.13h3.6v2.26H17.488a.523.523,0,0,1-.522-.522V5.252a.523.523,0,0,1,.522-.522H33.1V6.99H23.666a1.13,1.13,0,0,0-1.13,1.13A2.182,2.182,0,0,1,20.356,10.3a1.13,1.13,0,0,0-1.13,1.13v4.155a1.13,1.13,0,0,0,2.26,0V12.414A4.457,4.457,0,0,0,24.65,9.25H33.1v.436a4.914,4.914,0,0,0,8.193,3.662,4.913,4.913,0,0,0,8.595,0,4.911,4.911,0,0,0,7.679-1.476A4.912,4.912,0,0,0,65.522,9.25H77.331a4.457,4.457,0,0,0,3.164,3.164V28.43a4.457,4.457,0,0,0-3.164,3.164H73.588a1.13,1.13,0,0,0,0,2.26h4.727a1.13,1.13,0,0,0,1.13-1.13,2.182,2.182,0,0,1,2.179-2.179,1.13,1.13,0,0,0,1.13-1.13V11.429a1.13,1.13,0,0,0-1.13-1.13A2.182,2.182,0,0,1,79.445,8.12a1.13,1.13,0,0,0-1.13-1.13H65.655V4.73h9.08a1.13,1.13,0,0,0,0-2.26h-9.29A3.7,3.7,0,0,0,61.958,0h-2.44a3.683,3.683,0,0,0-2.566,1.04A3.683,3.683,0,0,0,54.385,0h-2.44a3.683,3.683,0,0,0-2.567,1.04A3.683,3.683,0,0,0,46.811,0h-2.44A3.683,3.683,0,0,0,41.8,1.04,3.683,3.683,0,0,0,39.238,0H36.8a3.7,3.7,0,0,0-3.486,2.47H17.488a2.785,2.785,0,0,0-2.782,2.782v30.34a2.785,2.785,0,0,0,2.782,2.782h9.776v8.382a8.966,8.966,0,0,0,2.643,6.382l4.839,4.839V75.87a1.13,1.13,0,0,0,2.26,0V57.508a1.131,1.131,0,0,0-.331-.8l-5.17-5.17a6.72,6.72,0,0,1-1.981-4.784V26.8a3.235,3.235,0,0,1,6.469,0V37.243a1.13,1.13,0,0,0,1.13,1.13,9.224,9.224,0,0,1,9.213,9.213v.724a1.13,1.13,0,1,0,2.26,0v-.724a11.462,11.462,0,0,0-4.647-9.213H67.642v.584a9.49,9.49,0,0,1-1.787,5.56L62.6,49.055a1.13,1.13,0,0,0-.212.658V75.87a1.13,1.13,0,0,0,2.26,0V50.077l3.041-4.243a11.736,11.736,0,0,0,2.21-6.877v-.584h14.59a2.785,2.785,0,0,0,2.782-2.782V5.252A2.785,2.785,0,0,0,84.492,2.47ZM59.518,2.26h2.44A1.438,1.438,0,0,1,63.395,3.7V8.119a2.657,2.657,0,1,1-5.314,0V3.7A1.438,1.438,0,0,1,59.518,2.26Zm-7.573,0h2.44A1.438,1.438,0,0,1,55.821,3.7V9.685a2.657,2.657,0,0,1-5.314,0V3.7A1.438,1.438,0,0,1,51.944,2.26Zm-7.574,0h2.44A1.438,1.438,0,0,1,48.248,3.7v7.265a2.66,2.66,0,0,1-2.657,2.657h0a2.66,2.66,0,0,1-2.657-2.657V3.7A1.438,1.438,0,0,1,44.371,2.26ZM35.361,3.7A1.438,1.438,0,0,1,36.8,2.26h2.44A1.438,1.438,0,0,1,40.674,3.7V9.685a2.657,2.657,0,0,1-5.314,0V3.7Z" transform="translate(0 0)"/><path d="M191.02,108.212a1.131,1.131,0,0,0-1.289.945,10.052,10.052,0,0,0-.116,1.522,9.939,9.939,0,1,0,19.489-2.753,1.13,1.13,0,1,0-2.172.625,7.678,7.678,0,1,1-14.967.949A1.13,1.13,0,0,0,191.02,108.212Z" transform="translate(-148.555 -90.97)"/></g></svg>