<svg xmlns="http://www.w3.org/2000/svg" width="82.899" height="82.902" viewBox="0 0 82.899 82.902"><g transform="translate(-0.012 0.002)"><path d="M59.442,84.168V78.641a1.382,1.382,0,0,0-2.763,0v5.527A1.382,1.382,0,0,1,55.3,85.549H53.915a1.382,1.382,0,0,1-1.382-1.382v-15.2H58.06a1.382,1.382,0,0,0,1.382-1.382V62.061a5.527,5.527,0,0,0-5.527-5.527h-5.68a9.671,9.671,0,1,0-13.509,0H31.809a1.382,1.382,0,1,0,0,2.763h4.145v2.763a1.382,1.382,0,0,0,.4.977l3.74,3.74v4.954a1.382,1.382,0,0,0,2.763,0V66.778l3.74-3.74a1.385,1.385,0,0,0,.4-.977V59.3h6.908a2.763,2.763,0,0,1,2.763,2.763v4.145H51.152a1.382,1.382,0,0,0-1.382,1.382v38.686H42.862V89.694a1.382,1.382,0,1,0-2.763,0v16.58H33.191V84.168H44.244a1.382,1.382,0,0,0,0-2.763H33.191V67.588a1.382,1.382,0,1,0-2.763,0v16.58a1.382,1.382,0,0,1-1.382,1.382H27.664a1.382,1.382,0,0,1-1.382-1.382V70.351a1.382,1.382,0,1,0-2.763,0V81.4H17.992a6.916,6.916,0,0,0-6.908,6.908V90.37L8.4,92.3l-3.968.64a1.381,1.381,0,0,0-1.145,1.146l-.64,3.968L.3,101.317a1.381,1.381,0,0,0,0,1.616l2.348,3.259.64,3.968a1.381,1.381,0,0,0,1.145,1.146l3.968.64,3.26,2.349a1.381,1.381,0,0,0,1.616,0l3.259-2.349,3.968-.64a1.382,1.382,0,0,0,1.146-1.146l.64-3.968,2.348-3.259a1.381,1.381,0,0,0,0-1.616l-2.348-3.259-.64-3.968A1.382,1.382,0,0,0,20.5,92.944l-3.968-.64L13.848,90.37V88.312a4.145,4.145,0,0,1,4.145-4.145h5.527a4.145,4.145,0,0,0,4.145,4.145h1.382a4.1,4.1,0,0,0,1.382-.254V111.8a4.145,4.145,0,0,0,4.145,4.145h4.145a4.12,4.12,0,0,0,2.763-1.077,4.118,4.118,0,0,0,2.763,1.077h4.145a4.145,4.145,0,0,0,4.145-4.145V88.058a4.089,4.089,0,0,0,1.382.254H55.3A4.145,4.145,0,0,0,59.442,84.168ZM34.572,49.626a6.908,6.908,0,1,1,6.908,6.908A6.908,6.908,0,0,1,34.572,49.626Zm9.672,11.863L41.48,64.252l-2.763-2.763V59.3h5.527ZM15.77,94.983l3.306.535.535,3.306a1.361,1.361,0,0,0,.244.589l1.959,2.716-1.959,2.717a1.361,1.361,0,0,0-.244.588l-.535,3.306-3.306.534a1.371,1.371,0,0,0-.588.245l-2.716,1.959-2.717-1.959a1.371,1.371,0,0,0-.588-.245l-3.306-.534-.535-3.306a1.362,1.362,0,0,0-.244-.588l-1.959-2.717,1.959-2.716a1.361,1.361,0,0,0,.244-.589l.535-3.306,3.306-.535a1.354,1.354,0,0,0,.588-.245l2.717-1.959,2.716,1.959A1.354,1.354,0,0,0,15.77,94.983Zm22.947,18.2H34.572a1.382,1.382,0,0,1-1.382-1.382v-2.763H40.1V111.8A1.382,1.382,0,0,1,38.717,113.182ZM49.77,111.8a1.382,1.382,0,0,1-1.382,1.382H44.244a1.382,1.382,0,0,1-1.382-1.382v-2.763H49.77Zm0,0" transform="translate(-0.019 -33.045)"/><path d="M380.157,29.546a1.382,1.382,0,0,1,1.382,1.382,1.382,1.382,0,1,0,2.763,0,4.145,4.145,0,0,0-2.763-3.891V25.4a1.382,1.382,0,0,0-2.763,0v1.636a4.135,4.135,0,0,0,1.382,8.036,1.382,1.382,0,1,1-1.382,1.382,1.382,1.382,0,1,0-2.763,0,4.143,4.143,0,0,0,2.763,3.891v1.636a1.382,1.382,0,0,0,2.763,0V40.345a4.135,4.135,0,0,0-1.382-8.036,1.382,1.382,0,1,1,0-2.763Zm0,0" transform="translate(-311.063 -19.873)"/><path d="M332.33,27.564v6.978a4.145,4.145,0,0,1-4.145,4.145h-5.527a1.382,1.382,0,0,0,0,2.763h5.527a6.917,6.917,0,0,0,6.908-6.908V27.564a13.836,13.836,0,0,0,12.435-13.746,1.382,1.382,0,1,0-2.763,0,11.089,11.089,0,1,1-2.833-7.367,1.382,1.382,0,1,0,2.056-1.846A13.817,13.817,0,1,0,332.33,27.564Zm0,0" transform="translate(-264.618)"/><path d="M1.393,32.044H5.538v5.448A6.916,6.916,0,0,0,12.447,44.4h5.527a1.382,1.382,0,1,0,0-2.763H12.447A4.145,4.145,0,0,1,8.3,37.492V32.044H26.263a1.382,1.382,0,0,0,1.382-1.382V8.556a1.382,1.382,0,0,0-1.382-1.382H21.054A4.145,4.145,0,0,0,20.982,1.4a4.244,4.244,0,0,0-5.861,0,9.623,9.623,0,0,0-1.293,1.791,9.6,9.6,0,0,0-1.292-1.8,4.247,4.247,0,0,0-5.863,0A4.145,4.145,0,0,0,6.6,7.175H1.393A1.382,1.382,0,0,0,.012,8.556v9.593a1.382,1.382,0,1,0,2.763,0V9.938H8.19L4.459,14.6a1.382,1.382,0,0,0,2.158,1.727L9.683,12.5V29.281H7.308A1.364,1.364,0,0,0,6.92,29.2a1.364,1.364,0,0,0-.389.079H2.775V26.439a1.382,1.382,0,1,0-2.763,0v4.224A1.382,1.382,0,0,0,1.393,32.044Zm23.488-2.763H17.973V12.5l3.066,3.833A1.382,1.382,0,0,0,23.2,14.6L19.466,9.938h5.415Zm-6.83-26.33a1.382,1.382,0,0,1,.977,2.359,8.653,8.653,0,0,1-3.783,1.865H15.21a8.56,8.56,0,0,1,1.872-3.819A1.362,1.362,0,0,1,18.051,2.951Zm-9.424.4a1.382,1.382,0,0,1,1.954,0,8.576,8.576,0,0,1,1.865,3.819H12.4A8.649,8.649,0,0,1,8.622,5.309,1.381,1.381,0,0,1,8.627,3.356Zm3.819,6.582H15.21V29.281H12.447Zm0,0" transform="translate(0 -0.186)"/><path d="M356.736,296.312a1.382,1.382,0,0,0,0,2.763,1.382,1.382,0,0,1,1.382,1.382v12.435a1.382,1.382,0,0,1-1.382,1.382h-16.58a1.382,1.382,0,0,1-1.382-1.382V300.456a1.382,1.382,0,0,1,1.382-1.382h1.382a1.382,1.382,0,0,0,1.382-1.382v-4.954l5.931,5.931a1.382,1.382,0,0,0,1.954-1.954l-8.29-8.29a1.381,1.381,0,0,0-2.358.977v6.908a4.145,4.145,0,0,0-4.145,4.145v12.435a4.145,4.145,0,0,0,4.145,4.145h16.58a4.145,4.145,0,0,0,4.145-4.145V300.456A4.145,4.145,0,0,0,356.736,296.312Zm0,0" transform="translate(-277.971 -238.281)"/><path d="M369.393,378.783h2.763a1.382,1.382,0,1,0,0-2.763h-2.763a1.382,1.382,0,0,0,0,2.763Zm0,0" transform="translate(-304.444 -311.081)"/><path d="M421.538,377.4a1.382,1.382,0,0,0-1.382-1.382h-2.763a1.382,1.382,0,0,0,0,2.763h2.763A1.382,1.382,0,0,0,421.538,377.4Zm0,0" transform="translate(-344.155 -311.081)"/><path d="M369.393,410.783h8.29a1.382,1.382,0,0,0,0-2.763h-8.29a1.382,1.382,0,0,0,0,2.763Zm0,0" transform="translate(-304.444 -337.554)"/><path d="M48.416,383.986a1.381,1.381,0,0,0,1.954,0l5.527-5.527a1.382,1.382,0,0,0-1.954-1.954l-5.527,5.527A1.381,1.381,0,0,0,48.416,383.986Zm0,0" transform="translate(-39.71 -311.162)"/><path d="M50.775,377.4a1.382,1.382,0,1,1-1.382-1.382A1.382,1.382,0,0,1,50.775,377.4Zm0,0" transform="translate(-39.71 -311.081)"/><path d="M82.775,409.4a1.382,1.382,0,1,1-1.382-1.382A1.382,1.382,0,0,1,82.775,409.4Zm0,0" transform="translate(-66.184 -337.554)"/></g></svg>