<svg xmlns="http://www.w3.org/2000/svg" width="90.283" height="87.543" viewBox="0 0 90.283 87.543"><path d="M28.594,377.348a1.324,1.324,0,1,0-.937-.388A1.33,1.33,0,0,0,28.594,377.348Zm0,0" transform="translate(-22.461 -308.63)"/><path d="M88.079,200.5H80.223a2.207,2.207,0,0,0-2.2,2.2v.628h-3.81a2.206,2.206,0,0,0-2.2,2.2v2.73H51.277a4.255,4.255,0,0,0-3.032,1.26l-.56.561-.141-.141a6.246,6.246,0,0,0-3.945-1.686H18.277v-2.726a2.207,2.207,0,0,0-2.2-2.2H12.264V202.7a2.207,2.207,0,0,0-2.2-2.2H2.2A2.207,2.207,0,0,0,0,202.7V236.67a2.207,2.207,0,0,0,2.2,2.2H10.06a2.207,2.207,0,0,0,2.2-2.2v-.628h3.81a2.207,2.207,0,0,0,2.2-2.2V232.77l1.59,1.137a4.541,4.541,0,0,0,1.3,3.587,4.491,4.491,0,0,0,3.2,1.318l.1,0a4.492,4.492,0,0,0,4.516,4.628l.1,0a4.489,4.489,0,0,0,4.515,4.627l.1,0a4.492,4.492,0,0,0,4.516,4.628,4.729,4.729,0,0,0,3.368-1.407l.312-.313a4.852,4.852,0,0,0,5.875-.757l.4-.4a4.833,4.833,0,0,0,1.246-2.162,4.855,4.855,0,0,0,5.709-.851l.4-.4a4.824,4.824,0,0,0,1.219-2.062,4.85,4.85,0,0,0,6.015-.672l.4-.4a4.823,4.823,0,0,0,1.3-2.375,4.856,4.856,0,0,0,5.22-1.077l.4-.4a4.871,4.871,0,0,0,.6-6.125L72,232.528v1.31a2.206,2.206,0,0,0,2.2,2.2h3.81v.629a2.207,2.207,0,0,0,2.2,2.2h7.856a2.207,2.207,0,0,0,2.2-2.2V202.7A2.206,2.206,0,0,0,88.079,200.5ZM9.619,236.23H2.645V203.146H9.619Zm14.75-.063a1.863,1.863,0,0,1-1.331-.54,2.023,2.023,0,0,1,.089-2.848l.585-.588a2.1,2.1,0,0,1,1.5-.629,1.863,1.863,0,0,1,1.331.54,2.022,2.022,0,0,1-.089,2.847l-.586.588A2.1,2.1,0,0,1,24.369,236.167Zm4.611,4.625a1.86,1.86,0,0,1-1.331-.54,2.022,2.022,0,0,1,.089-2.847l.586-.588a2.1,2.1,0,0,1,1.5-.628,1.862,1.862,0,0,1,1.331.539,2.024,2.024,0,0,1-.089,2.848l-.586.588A2.1,2.1,0,0,1,28.98,240.792Zm4.611,4.625a1.861,1.861,0,0,1-1.331-.539,2.023,2.023,0,0,1,.088-2.847h0l.586-.588h0a2.1,2.1,0,0,1,1.494-.628,1.862,1.862,0,0,1,1.331.54,2.023,2.023,0,0,1-.089,2.848l-.586.588A2.1,2.1,0,0,1,33.591,245.418Zm6.106,4a2.1,2.1,0,0,1-1.495.629,1.86,1.86,0,0,1-1.331-.54,2.023,2.023,0,0,1,.089-2.847l.586-.588a2.1,2.1,0,0,1,1.5-.629,1.86,1.86,0,0,1,1.331.54,2.023,2.023,0,0,1-.089,2.847Zm28.5-11.877-.4.4a2.2,2.2,0,0,1-3.106,0L54.353,227.569a1.323,1.323,0,1,0-1.874,1.867l8.8,8.827a2.22,2.22,0,0,1,0,3.129l-.4.4a2.2,2.2,0,0,1-3.106,0L47.6,231.6a1.322,1.322,0,0,0-1.873,1.867l7.866,7.892.044.044a2.219,2.219,0,0,1,0,3.128l-.4.4a2.2,2.2,0,0,1-3.107,0l-11.08-11.115a1.322,1.322,0,1,0-1.874,1.867l9.1,9.134a2.219,2.219,0,0,1,0,3.128l-.4.4a2.2,2.2,0,0,1-2.548.4,4.591,4.591,0,0,0-1.092-4.636,4.489,4.489,0,0,0-3.2-1.317l-.1,0a4.491,4.491,0,0,0-4.516-4.628l-.1,0a4.49,4.49,0,0,0-4.515-4.627l-.1,0a4.491,4.491,0,0,0-4.516-4.628,4.726,4.726,0,0,0-3.368,1.407l-.586.588a4.763,4.763,0,0,0-.4.451l-2.58-1.845v-3.144a1.323,1.323,0,1,0-2.645,0V233.4H12.264V205.978h3.369v14.047a1.323,1.323,0,0,0,2.645,0v-9.118H43.6a3.7,3.7,0,0,1,2.073.907l.146.147-9.382,9.412a5.341,5.341,0,0,0-1.568,3.682,5.017,5.017,0,0,0,5.048,5.158,5.3,5.3,0,0,0,3.774-1.577l3.209-3.219a8.163,8.163,0,0,0,4.061,1.088,8.068,8.068,0,0,0,5.754-2.39l.61-.612L68.194,234.41A2.219,2.219,0,0,1,68.194,237.538Zm6.455-4.14V221.26a1.323,1.323,0,1,0-2.645,0v8.231l-3.187,1.8L59.19,221.63l1.434-1.438a1.323,1.323,0,0,0-1.874-1.867l-3.912,3.924a5.477,5.477,0,0,1-7.284.427,1.323,1.323,0,0,0-1.759.1l-3.98,3.993a2.672,2.672,0,0,1-1.9.8,2.392,2.392,0,0,1-1.709-.694,2.419,2.419,0,0,1-.694-1.77,2.71,2.71,0,0,1,.8-1.865l11.81-11.846a1.625,1.625,0,0,1,1.159-.482H72v4a1.323,1.323,0,1,0,2.645,0v-8.934h3.369V233.4Zm12.988,2.832H80.664V203.146h6.974Zm0,0" transform="translate(0 -165.145)"/><path d="M471.043,377.348a1.325,1.325,0,1,0-.936-.388A1.333,1.333,0,0,0,471.043,377.348Zm0,0" transform="translate(-386.892 -308.63)"/><path d="M185.287,91.189a15.092,15.092,0,0,0,7.731-2.126,1.323,1.323,0,0,0-1.356-2.272,12.538,12.538,0,1,1,4.353-4.355,1.322,1.322,0,1,0,2.271,1.355,15.132,15.132,0,1,0-13,7.4Zm0,0" transform="translate(-140.146 -50.099)"/><path d="M217.786,122.745v-1.427a1.323,1.323,0,0,0-2.645,0v1.427a1.323,1.323,0,0,0,2.645,0Zm0,0" transform="translate(-177.204 -98.837)"/><path d="M284.5,122.745v-1.427a1.323,1.323,0,0,0-2.645,0v1.427a1.323,1.323,0,0,0,2.645,0Zm0,0" transform="translate(-232.158 -98.837)"/><path d="M229.273,160.958a5.509,5.509,0,0,0,5.722-5.253,1.323,1.323,0,0,0-2.645,0,3.119,3.119,0,0,1-6.154,0,1.323,1.323,0,0,0-2.645,0A5.508,5.508,0,0,0,229.273,160.958Zm0,0" transform="translate(-184.131 -127.16)"/><path d="M338.749,18.1a9.049,9.049,0,0,0,8.2-12.828l1.132-1.136a1.322,1.322,0,1,0-1.873-1.867l-.74.743A9.036,9.036,0,1,0,338.749,18.1Zm0-15.457A6.36,6.36,0,0,1,343.6,4.892l-4.848,4.863-2.817-2.826A1.323,1.323,0,0,0,334.059,8.8l3.38,3.391a1.851,1.851,0,0,0,2.62,0L344.9,7.334a6.378,6.378,0,1,1-6.147-4.689Zm0,0" transform="translate(-271.581)"/><path d="M69.181,54.489l-.467,2.724a2.345,2.345,0,0,0,2.312,2.742,2.355,2.355,0,0,0,1.092-.269L74.564,58.4l2.446,1.286a2.355,2.355,0,0,0,1.092.269,2.345,2.345,0,0,0,2.312-2.742l-.467-2.724,1.979-1.929a2.346,2.346,0,0,0-1.3-4l-2.735-.4-1.223-2.479a2.346,2.346,0,0,0-4.207,0l-1.223,2.478-2.735.4a2.346,2.346,0,0,0-1.3,4Zm3.124-3.81a1.322,1.322,0,0,0,1-.724L74.564,47.4l1.263,2.558a1.324,1.324,0,0,0,1,.724l2.823.41L77.6,53.08a1.322,1.322,0,0,0-.38,1.171l.482,2.812L75.18,55.735a1.326,1.326,0,0,0-1.231,0l-2.525,1.328.482-2.812a1.322,1.322,0,0,0-.38-1.171l-2.043-1.991Zm0,0" transform="translate(-54.768 -36.55)"/></svg>