<svg xmlns="http://www.w3.org/2000/svg" width="77.56" height="77.56" viewBox="0 0 77.56 77.56"><defs><style>.a{stroke:#000;}</style></defs><g transform="translate(-3.09 -3.18)"><path class="a" d="M80.169,72.11a6.751,6.751,0,0,0-4.246-2,5.307,5.307,0,0,0-4.224,1.5c-2.194,2.194-1.972,6,.512,8.471a6.718,6.718,0,0,0,4.7,2.02,5.245,5.245,0,0,0,3.77-1.508,5.307,5.307,0,0,0,1.5-4.224,6.853,6.853,0,0,0-2.014-4.256ZM78.926,78.84c-1.237,1.228-3.464,1.005-4.975-.5s-1.74-3.744-.512-4.975a2.9,2.9,0,0,1,2.294-.783,4.475,4.475,0,0,1,3.976,3.976,2.865,2.865,0,0,1-.783,2.284Z" transform="translate(-11.667 -11.634)"/><path class="a" d="M17.277,25.52a6.751,6.751,0,0,0,4.246,2c.158.01.306.016.461.016a5.212,5.212,0,0,0,3.76-1.518c2.194-2.194,1.972-6-.512-8.471s-6.276-2.706-8.48-.5a5.307,5.307,0,0,0-1.5,4.224,6.9,6.9,0,0,0,2.027,4.247ZM18.521,18.8A2.81,2.81,0,0,1,20.55,18a4.258,4.258,0,0,1,2.951,1.3c1.508,1.508,1.74,3.744.512,4.975a2.889,2.889,0,0,1-2.294.783,4.475,4.475,0,0,1-3.976-3.976,2.841,2.841,0,0,1,.776-2.291Z" transform="translate(-2.04 -2.077)"/><path class="a" d="M17.462,72.29a6.751,6.751,0,0,0-2,4.246,5.188,5.188,0,0,0,5.271,5.732,6.7,6.7,0,0,0,4.7-2.02c2.474-2.474,2.706-6.276.5-8.48-2.194-2.181-6-1.953-8.471.522Zm6.218,6.222c-1.508,1.508-3.744,1.74-4.975.5a2.877,2.877,0,0,1-.783-2.294,4.316,4.316,0,0,1,1.286-2.69,4.258,4.258,0,0,1,2.951-1.3,2.818,2.818,0,0,1,2.03.793c1.231,1.244,1,3.48-.509,4.991Z" transform="translate(-2.076 -11.666)"/><path class="a" d="M75.275,27.361c.148,0,.306-.01.461-.016a6.953,6.953,0,0,0,6.251-6.251,5.307,5.307,0,0,0-1.5-4.224c-2.194-2.194-6-1.972-8.48.5s-2.706,6.276-.5,8.48a5.306,5.306,0,0,0,3.773,1.508Zm-1.508-8.239a4.258,4.258,0,0,1,2.951-1.3,2.818,2.818,0,0,1,2.03.793,2.877,2.877,0,0,1,.783,2.294,4.475,4.475,0,0,1-3.976,3.976,2.878,2.878,0,0,1-2.294-.783c-1.234-1.234-1.005-3.46.506-4.978Z" transform="translate(-11.632 -2.046)"/><path class="a" d="M16.29,49.023c0-3.109-2.845-5.632-6.35-5.632s-6.35,2.523-6.35,5.632,2.855,5.632,6.35,5.632S16.29,52.132,16.29,49.023ZM9.94,52.184c-2.136,0-3.876-1.418-3.876-3.157S7.8,45.869,9.94,45.869s3.876,1.418,3.876,3.157S12.076,52.184,9.94,52.184Z" transform="translate(0 -6.957)"/><path class="a" d="M23.071,41.5a1.2,1.2,0,0,1,1.063-.851l7.63-.5a1.24,1.24,0,0,0-.168-2.474l-7.63.5a3.684,3.684,0,0,0-3.274,2.607l-.9,3A3.69,3.69,0,0,0,20.9,47.614l.354.306-.354.306a3.661,3.661,0,0,0-1.105,3.828l.9,2.993a3.688,3.688,0,0,0,3.274,2.607l7.63.5h.084a1.239,1.239,0,0,0,.084-2.474l-7.63-.5a1.186,1.186,0,0,1-1.063-.851l-.909-2.993a1.207,1.207,0,0,1,.364-1.247l1.337-1.163.09-.084.016-.016c.032-.032.074-.058.106-.09.016-.026.032-.048.048-.074a.955.955,0,0,0,.122-.2c.01-.01.01-.016.016-.032a1.346,1.346,0,0,0,.064-.18.627.627,0,0,0,.016-.064.77.77,0,0,0,.026-.158v-.222c-.01-.058-.016-.106-.026-.158a.389.389,0,0,1-.016-.058.8.8,0,0,0-.074-.19c0-.01-.01-.016-.01-.026a.955.955,0,0,0-.122-.2c-.016-.026-.032-.048-.048-.074-.032-.032-.074-.064-.106-.1l-.016-.016-.09-.074-1.344-1.173a1.215,1.215,0,0,1-.364-1.253Z" transform="translate(-2.811 -5.953)"/><path class="a" d="M87.362,43.129c-3.505,0-6.35,2.523-6.35,5.632s2.845,5.632,6.35,5.632,6.35-2.523,6.35-5.632-2.855-5.632-6.35-5.632Zm0,8.8c-2.136,0-3.876-1.418-3.876-3.157s1.74-3.157,3.876-3.157,3.876,1.418,3.876,3.157S89.5,51.931,87.362,51.931Z" transform="translate(-13.563 -6.911)"/><path class="a" d="M76.473,55.046l.9-3a3.69,3.69,0,0,0-1.105-3.834l-.354-.306.354-.306a3.661,3.661,0,0,0,1.105-3.828l-.9-2.993A3.688,3.688,0,0,0,73.2,38.17l-7.63-.5a1.262,1.262,0,0,0-1.321,1.153A1.247,1.247,0,0,0,65.4,40.142l7.63.5a1.186,1.186,0,0,1,1.063.851L75,44.488a1.207,1.207,0,0,1-.364,1.247L73.3,46.908l-.09.074L73.19,47c-.032.032-.074.058-.106.09-.016.026-.032.048-.048.074a.955.955,0,0,0-.122.2c-.01.01-.01.016-.016.032a1.347,1.347,0,0,0-.064.18.625.625,0,0,0-.016.064.77.77,0,0,0-.026.158v.222c.01.058.016.106.026.158a.389.389,0,0,1,.016.058.8.8,0,0,0,.074.19c0,.01.01.016.01.026a.955.955,0,0,0,.122.2c.016.026.032.048.048.074a1.32,1.32,0,0,0,.106.09l.016.016.09.084,1.337,1.163A1.215,1.215,0,0,1,75,51.325l-.9,3a1.2,1.2,0,0,1-1.063.851l-7.63.5a1.239,1.239,0,0,0,.084,2.474h.084l7.63-.5a3.678,3.678,0,0,0,3.267-2.607Z" transform="translate(-10.626 -5.953)"/><path class="a" d="M48.675,16.38c3.109,0,5.632-2.845,5.632-6.35s-2.523-6.35-5.632-6.35-5.632,2.845-5.632,6.35,2.529,6.35,5.632,6.35Zm0-10.226c1.74,0,3.157,1.74,3.157,3.876s-1.418,3.876-3.157,3.876-3.157-1.74-3.157-3.876,1.418-3.876,3.157-3.876Z" transform="translate(-6.911)"/><path class="a" d="M54.956,20.8l-3-.9A3.687,3.687,0,0,0,48.119,21l-.306.354L47.507,21A3.661,3.661,0,0,0,43.68,19.9l-2.993.9a3.688,3.688,0,0,0-2.607,3.274l-.5,7.63a1.247,1.247,0,0,0,1.153,1.321h.084a1.246,1.246,0,0,0,1.237-1.153l.5-7.63a1.186,1.186,0,0,1,.851-1.063l2.993-.9a1.2,1.2,0,0,1,1.247.364l1.173,1.344.074.09a.009.009,0,0,1,.01.01.894.894,0,0,0,.1.116,1.019,1.019,0,0,0,.271.174.022.022,0,0,1,.016.01.978.978,0,0,0,.2.074.087.087,0,0,0,.048.01.582.582,0,0,0,.164.026h.216c.048-.01.1-.016.148-.026a.626.626,0,0,1,.064-.016c.064-.016.122-.042.19-.064.01,0,.016-.01.026-.01a1.308,1.308,0,0,0,.2-.122l.074-.048c.032-.032.064-.074.1-.106l.016-.016.074-.09,1.173-1.344a1.215,1.215,0,0,1,1.253-.364l3,.9a1.2,1.2,0,0,1,.851,1.063l.5,7.63a1.237,1.237,0,0,0,1.237,1.153h.084a1.239,1.239,0,0,0,1.153-1.321l-.5-7.63a3.665,3.665,0,0,0-2.6-3.283Z" transform="translate(-5.954 -2.813)"/><path class="a" d="M48.933,81.1c-3.109,0-5.632,2.845-5.632,6.35s2.523,6.35,5.632,6.35,5.632-2.845,5.632-6.35-2.529-6.35-5.632-6.35Zm0,10.226c-1.74,0-3.157-1.74-3.157-3.876s1.418-3.876,3.157-3.876,3.157,1.74,3.157,3.876S50.673,91.328,48.933,91.328Z" transform="translate(-6.957 -13.563)"/><path class="a" d="M56.92,64.349A1.256,1.256,0,0,0,55.6,65.5l-.5,7.63a1.186,1.186,0,0,1-.851,1.063l-2.993.9a1.188,1.188,0,0,1-1.247-.364l-1.173-1.344-.074-.09-.016-.016c-.032-.032-.058-.074-.09-.106l-.074-.048a1.308,1.308,0,0,0-.2-.122c-.01,0-.016-.01-.026-.01a1.937,1.937,0,0,0-.19-.074.389.389,0,0,0-.058-.016.582.582,0,0,0-.164-.026h-.222c-.048.01-.1.016-.158.026a.629.629,0,0,1-.064.016c-.064.016-.122.042-.19.064a.029.029,0,0,1-.026.01.955.955,0,0,0-.2.122l-.074.048c-.032.032-.064.074-.1.106l-.016.016-.074.09L45.65,74.721a1.216,1.216,0,0,1-1.253.364l-3-.9a1.2,1.2,0,0,1-.851-1.063l-.5-7.63a1.252,1.252,0,0,0-1.321-1.153,1.239,1.239,0,0,0-1.153,1.321l.5,7.63a3.684,3.684,0,0,0,2.607,3.274l3,.9a3.606,3.606,0,0,0,1.057.158,3.679,3.679,0,0,0,2.781-1.263L47.821,76l.306.354A3.669,3.669,0,0,0,50.9,77.62a3.5,3.5,0,0,0,1.057-.158l2.993-.9a3.688,3.688,0,0,0,2.607-3.274l.5-7.63a1.215,1.215,0,0,0-1.137-1.311Z" transform="translate(-5.952 -10.626)"/></g></svg>