<svg xmlns="http://www.w3.org/2000/svg" width="45.082" height="83" viewBox="0 0 45.082 83"><g transform="translate(-109.301)"><g transform="translate(109.301)"><path d="M152.839,28.118,141.425,13.686a12.288,12.288,0,0,0-7.84-4.51V1.735a1.735,1.735,0,1,0-3.469,0V9.176a12.06,12.06,0,0,0-7.823,4.51L110.845,28.135a7.228,7.228,0,0,0-1.544,4.441V75.923A7.107,7.107,0,0,0,116.43,83h30.789a7.107,7.107,0,0,0,7.164-7.042V32.575A7.314,7.314,0,0,0,152.839,28.118Zm-20.988-2.029a5.048,5.048,0,1,1-5.048,5.048A5.041,5.041,0,0,1,131.851,26.088Zm19.08,49.835a3.635,3.635,0,0,1-3.695,3.608H116.465a3.635,3.635,0,0,1-3.695-3.608V32.575a3.64,3.64,0,0,1,.8-2.29L125,15.837a8.7,8.7,0,0,1,5.117-3.14v10.1a8.522,8.522,0,1,0,3.469,0V12.7a8.767,8.767,0,0,1,2.064.694,8.65,8.65,0,0,1,3.036,2.446l11.448,14.432a3.724,3.724,0,0,1,.8,2.307Z" transform="translate(-109.301)"/></g><g transform="translate(126.052 48.846)"><path d="M217.2,296.014a5.81,5.81,0,0,0-5.533-4.059,2.324,2.324,0,1,1,2.324-2.324,1.735,1.735,0,0,0,3.469,0A5.81,5.81,0,0,0,213.4,284.1v-.763a1.735,1.735,0,1,0-3.469,0v.763a5.8,5.8,0,0,0,1.735,11.327,2.324,2.324,0,1,1-2.324,2.324,1.735,1.735,0,1,0-3.469,0,5.81,5.81,0,0,0,4.059,5.533v.867a1.735,1.735,0,1,0,3.469,0v-.867A5.8,5.8,0,0,0,217.2,296.014Z" transform="translate(-205.871 -281.6)"/></g></g></svg>