<svg xmlns="http://www.w3.org/2000/svg" width="37.428" height="37.429" viewBox="0 0 37.428 37.429"><path d="M3.749,35.283H5.62v8.109a.623.623,0,0,0,.624.624h6.238a.623.623,0,0,0,.624-.624V35.283h1.871a.623.623,0,0,0,.624-.624v-5.9a4.084,4.084,0,0,0-3.409-4.022,3.076,3.076,0,0,0,.29-1.3,3.119,3.119,0,0,0-6.238,0,3.076,3.076,0,0,0,.29,1.3,4.084,4.084,0,0,0-3.409,4.022v5.9a.623.623,0,0,0,.624.624Zm.624-6.528A2.831,2.831,0,0,1,7.2,25.926h.527a.624.624,0,0,0,.41-1.093,1.843,1.843,0,0,1-.647-1.4,1.871,1.871,0,1,1,3.743,0,1.843,1.843,0,0,1-.647,1.4A.624.624,0,0,0,11,25.926h.527a2.831,2.831,0,0,1,2.829,2.829v5.281H13.106V27.8H11.858V42.769H9.987V34.036H8.739v8.733H6.868V27.8H5.62v6.238H4.373Z" transform="translate(-3.125 -13.451)"/><path d="M87.488,3.749a.623.623,0,0,0-.624-.624h-4.99a.624.624,0,0,0-.624.624v4.99a.623.623,0,0,0,.624.624h4.99a.623.623,0,0,0,.624-.624ZM86.24,8.116H82.5V4.373H86.24Z" transform="translate(-50.06 -3.125)"/><path d="M85.529,87.192a.626.626,0,0,0-.017-.633l-3.119-4.99a.647.647,0,0,0-1.06,0l-3.119,4.99a.624.624,0,0,0,.532.954h6.238a.626.626,0,0,0,.546-.321Zm-5.661-.926,2-3.189,2,3.189Z" transform="translate(-48.179 -50.086)"/><path d="M84.369,42.188a3.119,3.119,0,1,0,3.119,3.119,3.119,3.119,0,0,0-3.119-3.119Zm0,4.99a1.872,1.872,0,1,1,1.871-1.871A1.872,1.872,0,0,1,84.369,47.178Z" transform="translate(-50.06 -26.593)"/><path d="M39.062,45.613a.623.623,0,0,0,.624.624h8.733v1.248a.623.623,0,0,0,.954.529l4.99-3.119a.624.624,0,0,0,0-1.06l-5.008-3.119a.624.624,0,0,0-.953.535l.009,1.244H39.686a.624.624,0,0,0-.624.624Zm1.248-1.871h8.733a.623.623,0,0,0,.624-.63l-.006-.736,3.194,1.99-3.188,2v-.749a.623.623,0,0,0-.624-.624H40.31Z" transform="translate(-24.715 -25.651)"/><path d="M39.062,15.929v2.5a.623.623,0,0,0,.624.624h2.1a15.392,15.392,0,0,0,8.591-2.6l1.372,1.2v0a.623.623,0,0,0,1.018-.334L54.016,11.7a.623.623,0,0,0-.607-.759H47.8a.624.624,0,0,0-.519.97l.894,1.341A14.168,14.168,0,0,1,40.8,15.305H39.686a.624.624,0,0,0-.624.624Zm1.248.624H40.8a15.427,15.427,0,0,0,8.587-2.6.626.626,0,0,0,.173-.866l-.6-.9h3.671l-.851,3.83-.948-.828v0a.624.624,0,0,0-.774-.037A14.165,14.165,0,0,1,41.786,17.8H40.31Z" transform="translate(-24.715 -7.819)"/><path d="M39.062,71.869a.623.623,0,0,0,.624.624H40.8a14.185,14.185,0,0,1,7.367,2.059l-.894,1.341a.624.624,0,0,0,.519.967h5.614a.623.623,0,0,0,.608-.759L52.77,70.486a.623.623,0,0,0-1.018-.334l-1.372,1.2v0a15.391,15.391,0,0,0-8.593-2.6h-2.1a.624.624,0,0,0-.624.624ZM40.31,70h1.477a14.166,14.166,0,0,1,8.273,2.651.624.624,0,0,0,.774-.037l.948-.828.85,3.829H48.962l.6-.9a.626.626,0,0,0-.173-.866,15.427,15.427,0,0,0-8.587-2.6H40.31Z" transform="translate(-24.715 -42.551)"/><path d="M12.5,3.125h3.119V4.373H12.5Z" transform="translate(-8.757 -3.125)"/><path d="M4.373,4.373H5.62V3.125H3.749a.624.624,0,0,0-.624.624V5.62H4.373Z" transform="translate(-3.125 -3.125)"/><path d="M3.125,12.5H4.373v3.119H3.125Z" transform="translate(-3.125 -8.757)"/><path d="M3.125,79.688H4.373v3.119H3.125Z" transform="translate(-3.125 -49.122)"/><path d="M3.749,93.12H5.62V91.873H4.373V90.625H3.125V92.5a.623.623,0,0,0,.624.624Z" transform="translate(-3.125 -55.692)"/><path d="M12.5,93.75h3.119V95H12.5Z" transform="translate(-8.757 -57.57)"/></svg>