<svg xmlns="http://www.w3.org/2000/svg" width="39.416" height="69.458" viewBox="0 0 39.416 69.458"><g transform="translate(-110.725)"><path d="M146.26,0H114.606a3.886,3.886,0,0,0-3.881,3.881v61.7a3.886,3.886,0,0,0,3.881,3.881h4.7a1.017,1.017,0,1,0,0-2.035h-4.7a1.849,1.849,0,0,1-1.846-1.846V3.881a1.849,1.849,0,0,1,1.846-1.846h3.9l1.9,3.726a2.364,2.364,0,0,0,2.114,1.294h15.822a2.364,2.364,0,0,0,2.114-1.294l1.9-3.726h3.9a1.849,1.849,0,0,1,1.846,1.846V9.134a1.017,1.017,0,0,0,2.035,0V3.881A3.886,3.886,0,0,0,146.26,0Zm-7.614,4.835a.338.338,0,0,1-.3.185H122.522a.338.338,0,0,1-.3-.185l-1.431-2.8h19.287Z" transform="translate(0)"/><path d="M226.72,93.834a1.017,1.017,0,0,0-1.017,1.017v51.83a1.849,1.849,0,0,1-1.846,1.846H201.517a1.017,1.017,0,0,0,0,2.035h22.338a3.886,3.886,0,0,0,3.881-3.881V94.851A1.017,1.017,0,0,0,226.72,93.834Z" transform="translate(-77.596 -81.104)"/><path d="M204.608,92.622a1.017,1.017,0,0,0,1.017-1.017V89.028l.573.539a1.017,1.017,0,0,0,1.394-1.482l-2.288-2.151a1.017,1.017,0,0,0-1.394,0l-2.288,2.151a1.017,1.017,0,0,0,1.394,1.482l.573-.539V91.6A1.017,1.017,0,0,0,204.608,92.622Z" transform="translate(-78.291 -74.037)"/><path d="M265.28,92.622A1.017,1.017,0,0,0,266.3,91.6V89.028l.573.539a1.018,1.018,0,0,0,1.394-1.482l-2.288-2.151a1.017,1.017,0,0,0-1.394,0L262.3,88.084a1.017,1.017,0,0,0,1.394,1.482l.573-.539V91.6A1.017,1.017,0,0,0,265.28,92.622Z" transform="translate(-130.732 -74.037)"/><path d="M170.012,165.54a3.306,3.306,0,0,0-.26-1.289h5.472a3.324,3.324,0,1,0,6.127,0h1a1.017,1.017,0,1,0,0-2.035H162.746a.745.745,0,1,1,0-1.49H180.9a1.017,1.017,0,0,0,1-.818l3.314-16.611h1.263a1.017,1.017,0,0,0,0-2.035h-2.1a1.018,1.018,0,0,0-1,.818l-.572,2.869-21.2,1.562a1.017,1.017,0,0,0-.905,1.288l2.539,9.09a1.017,1.017,0,0,0,.98.744h2.978a1.017,1.017,0,0,0,0-2.035H165l-2-7.149,19.393-1.429-1.711,8.578h-8.866a1.017,1.017,0,0,0,0,2.035h8.46l-.211,1.058H162.746a2.78,2.78,0,0,0,0,5.56h.879a3.324,3.324,0,1,0,6.387,1.289Zm8.275,1.289a1.289,1.289,0,1,1,1.289-1.289A1.291,1.291,0,0,1,178.288,166.829ZM165.4,165.54a1.289,1.289,0,1,1,1.289,1.289A1.291,1.291,0,0,1,165.4,165.54Z" transform="translate(-42.561 -122.097)"/><path d="M209.017,200.493A1.017,1.017,0,0,0,208,201.51v2.849a1.017,1.017,0,1,0,2.035,0V201.51A1.017,1.017,0,0,0,209.017,200.493Z" transform="translate(-84.079 -173.294)"/><path d="M235.535,204.359V201.51a1.017,1.017,0,1,0-2.035,0v2.849a1.017,1.017,0,1,0,2.035,0Z" transform="translate(-106.119 -173.294)"/><path d="M261.035,204.359V201.51a1.017,1.017,0,0,0-2.035,0v2.849a1.017,1.017,0,0,0,2.035,0Z" transform="translate(-128.16 -173.294)"/><path d="M286.535,204.359V201.51a1.017,1.017,0,0,0-2.035,0v2.849a1.017,1.017,0,0,0,2.035,0Z" transform="translate(-150.201 -173.294)"/><path d="M222.064,457.528H211.841a1.017,1.017,0,0,0,0,2.035h10.222a1.017,1.017,0,0,0,0-2.035Z" transform="translate(-86.52 -395.46)"/><path d="M209.177,385.565a2.377,2.377,0,0,0,2.374-2.374v-2.066a2.377,2.377,0,0,0-2.374-2.374h-11.8A2.377,2.377,0,0,0,195,381.125v2.066a2.377,2.377,0,0,0,2.374,2.374Zm-12.142-2.374v-2.066a.339.339,0,0,1,.339-.339h11.8a.339.339,0,0,1,.339.339v2.066a.339.339,0,0,1-.339.339h-11.8A.339.339,0,0,1,197.035,383.191Z" transform="translate(-72.842 -327.37)"/></g></svg>