<svg xmlns="http://www.w3.org/2000/svg" width="38" height="38" viewBox="0 0 38 38"><defs><style>.a{fill:#fff;}</style></defs><path class="a" d="M-1384-5539a18.882,18.882,0,0,1-7.4-1.493,18.934,18.934,0,0,1-6.04-4.072,18.928,18.928,0,0,1-4.072-6.039A18.881,18.881,0,0,1-1403-5558a18.881,18.881,0,0,1,1.493-7.4,18.937,18.937,0,0,1,4.072-6.04,18.945,18.945,0,0,1,6.04-4.072A18.882,18.882,0,0,1-1384-5577a18.882,18.882,0,0,1,7.4,1.493,18.945,18.945,0,0,1,6.04,4.072,18.937,18.937,0,0,1,4.072,6.04A18.878,18.878,0,0,1-1365-5558a18.878,18.878,0,0,1-1.493,7.4,18.928,18.928,0,0,1-4.072,6.039,18.934,18.934,0,0,1-6.04,4.072A18.882,18.882,0,0,1-1384-5539Zm-10.292-11.038h0a12.847,12.847,0,0,0,6.968,2.035,13.1,13.1,0,0,0,5.545-1.175,12.237,12.237,0,0,0,4.052-3.036,13.368,13.368,0,0,0,3.329-8.711c0-.178-.005-.359-.017-.588a9.041,9.041,0,0,0,2.276-2.357,9.492,9.492,0,0,1-2.616.716,4.52,4.52,0,0,0,2-2.509,9.1,9.1,0,0,1-2.88,1.1,4.566,4.566,0,0,0-3.317-1.437,4.547,4.547,0,0,0-4.54,4.543,4.6,4.6,0,0,0,.106,1.036,12.714,12.714,0,0,1-5.255-1.411,12.9,12.9,0,0,1-4.106-3.34,4.532,4.532,0,0,0-.623,2.3,4.533,4.533,0,0,0,2.018,3.775,4.444,4.444,0,0,1-2.052-.56v.05a4.57,4.57,0,0,0,3.639,4.462,4.51,4.51,0,0,1-1.191.149,3.941,3.941,0,0,1-.861-.078,4.584,4.584,0,0,0,4.245,3.165,9.179,9.179,0,0,1-5.632,1.937A8.567,8.567,0,0,1-1394.292-5550.038Z" transform="translate(1403 5577)"/></svg>