<svg xmlns="http://www.w3.org/2000/svg" width="85.146" height="85.146" viewBox="0 0 85.146 85.146"><path d="M79.653,136H76.906v59.053H74.16V136H71.413v59.053H68.667V167.587H65.92v27.467H63.173V167.587H60.427v27.467H57.68V160.72H54.933v34.333H52.187V160.72H49.44v34.333H46.693V163.467H43.947v31.587H41.2V163.467H38.453v31.587H35.707V144.24H32.96v50.813H30.213V144.24H27.467v50.813H24.72v-24.72H21.973v24.72H19.227v-24.72H16.48v24.72H13.733V164.84H10.987v30.213H8.24V164.84H5.493v30.213H0V197.8H85.146v-2.747H79.653Z" transform="translate(0 -112.653)"/><path d="M9.613,187.227A9.613,9.613,0,1,0,0,177.613,9.626,9.626,0,0,0,9.613,187.227ZM12.36,183.9a6.769,6.769,0,0,1-5.493,0v-.791a2.747,2.747,0,0,1,5.493,0ZM8.24,176.24a1.373,1.373,0,1,1,1.373,1.373A1.374,1.374,0,0,1,8.24,176.24Zm1.373-5.493a6.874,6.874,0,0,1,6.867,6.867,6.792,6.792,0,0,1-1.524,4.26,5.486,5.486,0,0,0-2.072-3.156,4.074,4.074,0,0,0,.85-2.477,4.12,4.12,0,1,0-8.24,0,4.082,4.082,0,0,0,.85,2.479,5.482,5.482,0,0,0-2.072,3.156,6.8,6.8,0,0,1-1.524-4.261A6.874,6.874,0,0,1,9.613,170.747Z" transform="translate(0 -139.16)"/><path d="M137.613,67.227A9.613,9.613,0,1,0,128,57.613,9.626,9.626,0,0,0,137.613,67.227ZM140.36,63.9a6.769,6.769,0,0,1-5.493,0v-.791a2.747,2.747,0,1,1,5.493,0Zm-4.12-7.658a1.373,1.373,0,1,1,1.373,1.373A1.374,1.374,0,0,1,136.24,56.24Zm1.373-5.493a6.874,6.874,0,0,1,6.867,6.867,6.792,6.792,0,0,1-1.524,4.26,5.486,5.486,0,0,0-2.072-3.156,4.074,4.074,0,0,0,.85-2.477,4.12,4.12,0,0,0-8.24,0,4.082,4.082,0,0,0,.85,2.479,5.482,5.482,0,0,0-2.072,3.156,6.8,6.8,0,0,1-1.524-4.261A6.874,6.874,0,0,1,137.613,50.747Z" transform="translate(-106.027 -39.76)"/><path d="M265.613,163.227A9.613,9.613,0,1,0,256,153.613,9.626,9.626,0,0,0,265.613,163.227Zm2.747-3.329a6.769,6.769,0,0,1-5.493,0v-.791a2.747,2.747,0,1,1,5.493,0Zm-4.12-7.658a1.373,1.373,0,1,1,1.373,1.373A1.374,1.374,0,0,1,264.24,152.24Zm1.373-5.493a6.874,6.874,0,0,1,6.867,6.867,6.793,6.793,0,0,1-1.524,4.26,5.486,5.486,0,0,0-2.072-3.156,4.075,4.075,0,0,0,.85-2.477,4.12,4.12,0,1,0-8.24,0,4.081,4.081,0,0,0,.85,2.479,5.482,5.482,0,0,0-2.072,3.156,6.8,6.8,0,0,1-1.524-4.261A6.874,6.874,0,0,1,265.613,146.747Z" transform="translate(-212.053 -119.28)"/><path d="M393.613,19.227A9.613,9.613,0,1,0,384,9.613,9.626,9.626,0,0,0,393.613,19.227ZM396.36,15.9a6.769,6.769,0,0,1-5.493,0v-.791a2.747,2.747,0,1,1,5.493,0ZM392.24,8.24a1.373,1.373,0,1,1,1.373,1.373A1.374,1.374,0,0,1,392.24,8.24Zm1.373-5.493a6.874,6.874,0,0,1,6.867,6.867,6.793,6.793,0,0,1-1.524,4.26,5.486,5.486,0,0,0-2.072-3.156,4.075,4.075,0,0,0,.85-2.477,4.12,4.12,0,1,0-8.24,0,4.082,4.082,0,0,0,.85,2.479,5.482,5.482,0,0,0-2.072,3.156,6.8,6.8,0,0,1-1.524-4.261A6.874,6.874,0,0,1,393.613,2.747Z" transform="translate(-318.08)"/></svg>