<svg xmlns="http://www.w3.org/2000/svg" width="73.995" height="77.001" viewBox="0 0 73.995 77.001"><g transform="translate(-4.688 -3.126)"><path d="M84.94,46.226a3.847,3.847,0,0,0-4.79-2.586l-34.426,10.3v0a1.286,1.286,0,0,0-.51.292l-4.184,3.93a1.285,1.285,0,0,0,.658,2.2l5.653.988a1.314,1.314,0,0,0,.59-.035L75.863,52.96l.122,2.644L67.11,58.261l.735,2.458,9.837-2.942h0a1.282,1.282,0,0,0,.914-1.29L78.4,52.2l3.959-1.184a3.85,3.85,0,0,0,2.583-4.793ZM47.484,58.771l-2.827-.494,2.092-1.967L52.6,54.561l.735,2.458ZM55.8,56.284l-.735-2.458,20.556-6.151.122,2.644Zm26.582-8.345a1.281,1.281,0,0,1-.76.619l-3.343,1-.122-2.644,2.727-.815a1.283,1.283,0,0,1,1.5,1.838Z" transform="translate(-6.42 -7.209)"/><path d="M52.172,64.284H30.355V45.033a1.282,1.282,0,0,0-1.283-1.283H5.971a1.283,1.283,0,0,0-1.283,1.283V86.1a1.282,1.282,0,0,0,1.283,1.283h46.2A1.282,1.282,0,0,0,53.456,86.1V65.567a1.282,1.282,0,0,0-1.283-1.283ZM38.055,66.851h5.133v5.133H38.055Zm-23.1-20.534h5.133V51.45H14.954Zm-7.7,0h5.133v6.417a1.282,1.282,0,0,0,1.283,1.283h7.7a1.282,1.282,0,0,0,1.283-1.283V46.317h5.133V64.284H7.254Zm7.7,20.534h5.133v5.133H14.954Zm-7.7,0h5.133v6.417a1.282,1.282,0,0,0,1.283,1.283h7.7a1.282,1.282,0,0,0,1.283-1.283V66.851h5.133V84.818H7.254ZM50.888,84.818H30.355V66.851h5.133v6.417a1.282,1.282,0,0,0,1.283,1.283h7.7a1.282,1.282,0,0,0,1.283-1.283V66.851h5.133Z" transform="translate(0 -7.257)"/><path d="M54.688,87.5h2.567v2.567H54.688Z" transform="translate(-8.932 -15.073)"/><path d="M26.562,87.5h2.567v2.567H26.562Z" transform="translate(-3.908 -15.073)"/><path d="M26.562,62.5h2.567v2.567H26.562Z" transform="translate(-3.908 -10.607)"/><path d="M29.13,13.392A2.57,2.57,0,0,1,31.7,10.825h7.7v2.567H32.98A1.283,1.283,0,0,0,31.7,14.676V33.926h2.567V15.959h30.8V36.493h2.567V14.676a1.282,1.282,0,0,0-1.283-1.283H59.93V10.826h7.7A2.57,2.57,0,0,1,70.2,13.393V35.21h2.567V13.393a5.14,5.14,0,0,0-5.133-5.133H55.156l.886-3.539A1.285,1.285,0,0,0,54.8,3.126H44.529a1.285,1.285,0,0,0-1.245,1.595l.886,3.539H31.7a5.14,5.14,0,0,0-5.133,5.133V33.927h2.567Zm12.834-2.567h3.85a1.285,1.285,0,0,0,1.245-1.595l-.886-3.539h6.978l-.886,3.539h0a1.285,1.285,0,0,0,1.245,1.595h3.85v2.567h-15.4Z" transform="translate(-3.908)"/><path d="M77.455,77.176a2.57,2.57,0,0,1-2.567,2.567h-7.7v2.567h7.7a5.14,5.14,0,0,0,5.133-5.133V65.626H77.455Z" transform="translate(-11.165 -11.165)"/><path d="M74.887,76.171V67.187H72.32v7.7H67.187v2.567H73.6a1.282,1.282,0,0,0,1.283-1.283Z" transform="translate(-11.165 -11.444)"/><path d="M46.763,23.159a1.282,1.282,0,0,0-1.283-1.283H40.346a1.283,1.283,0,0,0-1.283,1.283v5.133a1.282,1.282,0,0,0,1.283,1.283H45.48a1.282,1.282,0,0,0,1.283-1.283ZM44.2,27.009H41.63V24.442H44.2Z" transform="translate(-6.141 -3.349)"/><path d="M45.479,35.938H40.346a1.283,1.283,0,0,0-1.283,1.283v5.133a1.282,1.282,0,0,0,1.283,1.283h5.133a1.282,1.282,0,0,0,1.283-1.283V37.221a1.282,1.282,0,0,0-1.283-1.283ZM44.2,41.071H41.629V38.5H44.2Z" transform="translate(-6.141 -5.862)"/><path d="M51.562,21.875h2.567v2.567H51.562Z" transform="translate(-8.374 -3.349)"/><path d="M51.562,28.125h15.4v2.567h-15.4Z" transform="translate(-8.374 -4.466)"/><path d="M57.812,21.875H68.079v2.567H57.812Z" transform="translate(-9.49 -3.349)"/><path d="M51.562,35.938h2.567V38.5H51.562Z" transform="translate(-8.374 -5.862)"/><path d="M51.562,42.188h15.4v2.567h-15.4Z" transform="translate(-8.374 -6.978)"/><path d="M57.812,35.938H68.079V38.5H57.812Z" transform="translate(-9.49 -5.862)"/></g></svg>