<svg xmlns="http://www.w3.org/2000/svg" width="38.167" height="38.167" viewBox="0 0 38.167 38.167"><defs><style>.a{fill:#fff;}</style></defs><path class="a" d="M19.083,0A19.083,19.083,0,1,0,38.167,19.083,19.085,19.085,0,0,0,19.083,0ZM13.538,28.849H8.89V14.866h4.648ZM11.214,12.957h-.03a2.422,2.422,0,1,1,.061-4.831,2.423,2.423,0,1,1-.031,4.831ZM30.3,28.849H25.649v-7.48c0-1.88-.673-3.162-2.355-3.162a2.544,2.544,0,0,0-2.385,1.7,3.183,3.183,0,0,0-.153,1.134v7.809H16.11s.061-12.671,0-13.983h4.647v1.98a4.614,4.614,0,0,1,4.188-2.308c3.058,0,5.351,2,5.351,6.293Zm0,0"/></svg>