<svg xmlns="http://www.w3.org/2000/svg" width="201.9" height="23.1" viewBox="0 0 201.9 23.1"><defs><style>.a{fill:#0f0e0e;}.b{fill:#0b56ce;stroke:#0b4baa;}.b,.c,.d,.e{stroke-miterlimit:10;}.c{fill:#dc053f;stroke:#8c0630;}.d{fill:#008daa;stroke:#067584;}.e{fill:#ea660c;stroke:#aa4704;}</style></defs><g transform="translate(0 -3.2)"><path class="a" d="M2.7,14.7a4.882,4.882,0,0,1-1.6-1l.3-.6a5.6,5.6,0,0,0,1.5,1,4.477,4.477,0,0,0,2,.4,3.715,3.715,0,0,0,2.3-.6A1.9,1.9,0,0,0,8,12.4a1.366,1.366,0,0,0-.4-1.1,2.075,2.075,0,0,0-1-.6A10.313,10.313,0,0,0,5,10.2a18.507,18.507,0,0,0-2-.6,4.7,4.7,0,0,1-1.2-.9,2.41,2.41,0,0,1-.4-1.5,2.3,2.3,0,0,1,.4-1.4A2.412,2.412,0,0,1,3,4.8a6.03,6.03,0,0,1,2.1-.4,5.079,5.079,0,0,1,1.7.3,6.894,6.894,0,0,1,1.5.7L8,6a9.143,9.143,0,0,0-1.4-.7,3.887,3.887,0,0,0-1.5-.2,3.4,3.4,0,0,0-2.2.6,1.9,1.9,0,0,0-.8,1.5,1.366,1.366,0,0,0,.4,1.1,2.075,2.075,0,0,0,1,.6,10.313,10.313,0,0,0,1.6.5A10.783,10.783,0,0,1,7,10a5.025,5.025,0,0,1,1.2.8,2.456,2.456,0,0,1,.5,1.5,2.3,2.3,0,0,1-.4,1.4,2.683,2.683,0,0,1-1.3,1,6.537,6.537,0,0,1-2.1.4A7.8,7.8,0,0,1,2.7,14.7Z"/><path class="a" d="M12.5,5.2H8.7V4.5H17v.7H13.2V15h-.8V5.2Z"/><path class="a" d="M19.8,14.4a6.06,6.06,0,0,1-2-1.9,4.953,4.953,0,0,1-.7-2.7,4.953,4.953,0,0,1,.7-2.7,5.235,5.235,0,0,1,2-1.9,5.3,5.3,0,0,1,2.8-.7,5.3,5.3,0,0,1,2.8.7,6.06,6.06,0,0,1,2,1.9,4.953,4.953,0,0,1,.7,2.7,4.953,4.953,0,0,1-.7,2.7,5.235,5.235,0,0,1-2,1.9,5.3,5.3,0,0,1-2.8.7A6.812,6.812,0,0,1,19.8,14.4Zm5.2-.6a4.621,4.621,0,0,0,1.7-1.7,4.751,4.751,0,0,0,.6-2.4,4.751,4.751,0,0,0-.6-2.4A4.621,4.621,0,0,0,25,5.6a5.1,5.1,0,0,0-4.8,0,4.621,4.621,0,0,0-1.7,1.7,4.751,4.751,0,0,0-.6,2.4,4.751,4.751,0,0,0,.6,2.4,4.621,4.621,0,0,0,1.7,1.7,5.1,5.1,0,0,0,4.8,0Z"/><path class="a" d="M37.4,15l-2.5-3.5c-.4,0-.7.1-1,.1h-3V15h-.8V4.5h3.8a4.771,4.771,0,0,1,3.1.9A3.315,3.315,0,0,1,38.1,8a3.7,3.7,0,0,1-.6,2.1,2.912,2.912,0,0,1-1.8,1.2L38.3,15Zm-3.5-4.1a4.023,4.023,0,0,0,2.6-.7A2.947,2.947,0,0,0,37.3,8a2.454,2.454,0,0,0-.9-2.1,3.847,3.847,0,0,0-2.6-.7h-3v5.7Z"/><path class="a" d="M47.5,14.3V15H40.3V4.5h7v.7H41V9.3h5.6V10H41v4.3Z"/><path class="a" d="M53.6,3.6h3.3V15.5H53.6Z"/><path class="a" d="M60.8,3.6h3.1l4.9,6.3V3.6H72V15.5H69.1L64.1,9v6.5H60.9V3.6Z"/><path class="a" d="M78.8,6.5H75.2V3.6H85.6V6.5H82v9H78.7v-9Z"/><path class="a" d="M88.8,3.6h9.6V6.4H92V8.2h5.7v2.6H92v1.9h6.4v2.8H88.8Z"/><path class="a" d="M101.8,3.6h3.3v9h5.8v2.9h-9.1V3.6Z"/><path class="a" d="M114,3.6h3.3v9h5.8v2.9H114Z"/><path class="a" d="M126.2,3.6h3.3V15.5h-3.3Z"/><path class="a" d="M139.5,15.7a7.512,7.512,0,0,1-2.6-.5,4.644,4.644,0,0,1-2-1.3,6.69,6.69,0,0,1-1.4-1.9,6.963,6.963,0,0,1-.5-2.5h0a6.042,6.042,0,0,1,.5-2.4,6.9,6.9,0,0,1,1.3-2,5.328,5.328,0,0,1,2-1.3,7.082,7.082,0,0,1,2.6-.5,6.845,6.845,0,0,1,2.7.5,5.71,5.71,0,0,1,2.1,1.3l-1.9,2.3a4.58,4.58,0,0,0-1.3-.8,3.808,3.808,0,0,0-1.6-.3,2.663,2.663,0,0,0-1.2.3,3.592,3.592,0,0,0-1,.7,2.075,2.075,0,0,0-.6,1,2.745,2.745,0,0,0-.2,1.3h0a5.067,5.067,0,0,0,.2,1.3,2.552,2.552,0,0,0,.7,1,8.65,8.65,0,0,0,1,.7,2.745,2.745,0,0,0,1.3.2,3.557,3.557,0,0,0,1.9-.5V11h-2.3V8.6h5.5V14a7.994,7.994,0,0,1-2.2,1.3A9.087,9.087,0,0,1,139.5,15.7Z"/><path class="a" d="M148.2,3.6h9.6V6.4h-6.3V8.2h5.7v2.6h-5.7v1.9h6.4v2.8h-9.6V3.6Z"/><path class="a" d="M161.2,3.6h3.1l4.9,6.3V3.6h3.2V15.5h-2.9l-5-6.5v6.5h-3.2V3.6Z"/><path class="a" d="M182,15.7a6.436,6.436,0,0,1-2.4-.5,4.968,4.968,0,0,1-1.9-1.3,5.778,5.778,0,0,1-1.3-2,6.963,6.963,0,0,1-.5-2.5h0a6.042,6.042,0,0,1,.5-2.4,6.9,6.9,0,0,1,1.3-2,5.328,5.328,0,0,1,2-1.3,6.963,6.963,0,0,1,2.5-.5,8.807,8.807,0,0,1,1.7.2,5.782,5.782,0,0,1,1.4.5,4.44,4.44,0,0,1,1.1.8,9.014,9.014,0,0,1,.9,1l-2.5,1.9a3.459,3.459,0,0,0-1.1-1,3.313,3.313,0,0,0-1.5-.4,3.6,3.6,0,0,0-1.1.2,5.5,5.5,0,0,0-.9.7,3.329,3.329,0,0,0-.6,1,5.019,5.019,0,0,0-.2,1.2h0a4.3,4.3,0,0,0,.2,1.2,2.075,2.075,0,0,0,.6,1,2.178,2.178,0,0,0,.9.7,2.153,2.153,0,0,0,1.1.2,1.949,1.949,0,0,0,.8-.1c.2-.1.5-.2.7-.3a2.652,2.652,0,0,0,.6-.5l.6-.6,2.5,1.8c-.3.4-.6.7-.9,1.1a2.836,2.836,0,0,1-1.1.8c-.4.2-.9.4-1.4.6A3.006,3.006,0,0,1,182,15.7Z"/><path class="a" d="M190.4,3.6H200V6.4h-6.3V8.2h5.7v2.6h-5.7v1.9h6.4v2.8h-9.6V3.6Z"/><rect class="b" width="50.2" height="3.8" transform="translate(0.5 22)"/><rect class="c" width="50.2" height="3.8" transform="translate(50.7 22)"/><rect class="d" width="50.2" height="3.8" transform="translate(101.1 22)"/><rect class="e" width="50.2" height="3.8" transform="translate(151.2 22)"/></g></svg>