<svg xmlns="http://www.w3.org/2000/svg" width="84.002" height="84" viewBox="0 0 84.002 84"><g transform="translate(-16 -16)"><path d="M31.81,43.01l11.2-11.2,1.98,1.98-11.2,11.2ZM35.6,34.9a3.5,3.5,0,1,1-3.5-3.5A3.5,3.5,0,0,1,35.6,34.9Zm-2.8,0a.7.7,0,1,0-.7.7A.7.7,0,0,0,32.8,34.9ZM97.751,18.249a7.675,7.675,0,0,1-1.426,11.982L88.682,34.9l5.308,5.309a1.4,1.4,0,0,1,.409.99v7a1.4,1.4,0,0,1-.4.976L57.6,86.616,55.6,84.664l36-37.032V41.78l-9.967-9.967L79.65,35.057a9.8,9.8,0,1,1-14.416,2.122l2.332,1.55a7,7,0,1,0,10.6-1.248l-1.51,2.472a4.192,4.192,0,1,1-2.388-1.462l1.511-2.473a7,7,0,0,0-7.048,1.365L66.866,35.3a9.794,9.794,0,0,1,10.4-1.7L79.6,29.776,74.22,24.4H66.98L19.86,71.52a3.6,3.6,0,0,0-1.06,2.559v.042a3.6,3.6,0,0,0,1.06,2.559L39.32,96.14a3.6,3.6,0,0,0,2.559,1.06,3.64,3.64,0,0,0,2.6-1.1l9.411-9.679,2.008,1.952-9.411,9.679a6.456,6.456,0,0,1-4.6,1.945,6.378,6.378,0,0,1-4.54-1.88L17.88,78.66A6.378,6.378,0,0,1,16,74.121v-.042a6.378,6.378,0,0,1,1.88-4.539L42.672,44.747a3.5,3.5,0,1,1,4.875-4.875l9.3-9.3-3.565-.091a1.4,1.4,0,0,1-1.364-1.364l-.159-6.207L46.3,25.878a1.4,1.4,0,0,1-1.863-.5l-3.24-5.3-3.24,5.3a1.4,1.4,0,0,1-1.863.5l-5.456-2.968-.159,6.207a1.4,1.4,0,0,1-1.364,1.364l-6.207.159L25.878,36.1a1.4,1.4,0,0,1-.5,1.863l-5.3,3.24,5.3,3.24a1.4,1.4,0,0,1,.5,1.863l-2.968,5.456,6.207.159-.071,2.8L20.553,54.5a1.4,1.4,0,0,1-1.194-2.068l3.425-6.3-6.114-3.741a1.4,1.4,0,0,1,0-2.388l6.114-3.741-3.425-6.3A1.4,1.4,0,0,1,20.553,27.9l7.164-.183.183-7.164a1.4,1.4,0,0,1,2.068-1.194l6.3,3.425L40,16.669a1.4,1.4,0,0,1,2.388,0l3.741,6.114,6.3-3.425A1.4,1.4,0,0,1,54.5,20.553l.183,7.165,4.894.126L65.41,22.01a1.4,1.4,0,0,1,.989-.41h8.4a1.4,1.4,0,0,1,.99.41L81.1,27.318l4.671-7.643A7.72,7.72,0,0,1,92.321,16a7.628,7.628,0,0,1,5.43,2.249ZM45.4,41.9a.7.7,0,1,0-.7.7.719.719,0,0,0,.135-.015l.551-.551A.719.719,0,0,0,45.4,41.9Zm29.193,1.429-2.386-1.458a1.4,1.4,0,0,0,2.386,1.458ZM97.2,23.679a4.878,4.878,0,0,0-9.041-2.545l-5.024,8.221,3.51,3.51,8.22-5.024A4.871,4.871,0,0,0,97.2,23.679ZM23.41,73.81l1.98,1.98,8.4-8.4-1.98-1.98Zm14.58-2.22-1.98-1.98-8.4,8.4,1.98,1.98Zm4.2,4.2-1.98-1.98-8.4,8.4,1.98,1.98Zm4.2,4.2-1.98-1.98-8.4,8.4,1.98,1.98Zm4.2,4.2-1.98-1.98-8.4,8.4,1.98,1.98Zm4.752-9.532L60.1,77.412l1.4-2.423-4.11-2.38.2-.2-1.98-1.98-.727.727-2.812-1.627L53.39,68.21l-1.98-1.98-1.847,1.847-2.812-1.628L49.19,64.01l-1.98-1.98L44.243,65,42.229,63.83a2.781,2.781,0,0,0,.371-1.39V59.4l1.81,1.81,1.98-1.98-1.81-1.81A2.8,2.8,0,0,0,39.8,59.4v3.024l-.038-.022L37.99,60.63l-.472.473L34.9,59.588l-1.4,2.423,8.7,5.034-.584.584,1.98,1.98L44.7,68.5l2.812,1.627-1.7,1.7,1.98,1.98,2.232-2.232L52.834,73.2,50.01,76.029l1.98,1.98ZM63.19,51.99a.58.58,0,1,0,.82.82,1.4,1.4,0,0,1,1.98,0l7,7a1.4,1.4,0,0,1,0,1.98l-8.4,8.4a1.4,1.4,0,0,1-1.98,0l-7-7a1.4,1.4,0,0,1,0-1.98.58.58,0,1,0-.82-.82,1.4,1.4,0,0,1-1.98,0l-7-7a1.4,1.4,0,0,1,0-1.98l8.4-8.4a1.4,1.4,0,0,1,1.98,0l7,7a1.4,1.4,0,0,1,0,1.98Zm-1.98,2.8a3.385,3.385,0,0,1-.775-3.575L55.2,45.98,48.78,52.4l5.235,5.235a3.38,3.38,0,0,1,4.35,4.35L63.6,67.22l6.42-6.42-5.235-5.235a3.385,3.385,0,0,1-3.575-.775Zm-6.42-4.78-1.98,1.98,1.4,1.4,1.98-1.98Zm2.8,2.8-1.98,1.98,1.4,1.4,1.98-1.98Zm.82,4.78,1.4,1.4,1.98-1.98-1.4-1.4Zm4.2,4.2,1.98-1.98-1.4-1.4-1.98,1.98Z" transform="translate(0 0)"/></g></svg>