<svg xmlns="http://www.w3.org/2000/svg" width="114.475" height="64.405" viewBox="0 0 114.475 64.405"><g transform="translate(-1.781 -22.884)"><path d="M81.064,82.541H28.073l2.374,2.374V25.258l-2.374,2.374h52.99l-2.374-2.374V84.915c0,3.06,4.748,3.06,4.748,0V25.258a2.415,2.415,0,0,0-2.374-2.374H28.073A2.415,2.415,0,0,0,25.7,25.258V84.915a2.415,2.415,0,0,0,2.374,2.374h52.99c3.037,0,3.037-4.748,0-4.748Z" transform="translate(4.473)"/><path d="M14.02,31.5v44.75c0,3.06,4.748,3.06,4.748,0V31.5c0-3.042-4.748-3.042-4.748,0Z" transform="translate(2.289 1.185)"/><path d="M1.781,38.182V67.1c0,3.06,4.748,3.06,4.748,0V38.182c0-3.065-4.748-3.065-4.748,0Z" transform="translate(0 2.431)"/><path d="M81.98,31.5v44.75c0,3.06,4.748,3.06,4.748,0V31.5c0-3.042-4.748-3.042-4.748,0Z" transform="translate(15 1.185)"/><path d="M94.219,38.182V67.1c0,3.06,4.748,3.06,4.748,0V38.182C98.967,35.117,94.219,35.117,94.219,38.182Z" transform="translate(17.289 2.431)"/></g></svg>