<svg xmlns="http://www.w3.org/2000/svg" width="84" height="84" viewBox="0 0 84 84"><g transform="translate(63.647 49.881)"><path d="M394.229,316.6a6.282,6.282,0,1,1,6.282-6.282A6.291,6.291,0,0,1,394.229,316.6Zm0-9.282a3,3,0,1,0,3,3A3.006,3.006,0,0,0,394.229,307.319Z" transform="translate(-387.943 -304.038)"/></g><g transform="translate(0 0)"><path d="M29.71,28.069V16.5H57.219a9.351,9.351,0,1,1,0,18.7H45.914a1.641,1.641,0,1,0,0,3.281H57.219a12.632,12.632,0,1,0,0-25.264H29.71V1.641A1.641,1.641,0,0,0,28.069,0H1.641A1.641,1.641,0,0,0,0,1.641V28.069A1.641,1.641,0,0,0,1.641,29.71H28.069a1.641,1.641,0,0,0,1.641-1.641ZM11.778,3.281h6.155V9.5L15.718,8.131a1.641,1.641,0,0,0-1.721,0L11.778,9.5V3.281ZM26.429,26.429H3.281V3.281H8.5v9.153a1.64,1.64,0,0,0,2.5,1.4l3.859-2.377,3.855,2.376a1.641,1.641,0,0,0,2.5-1.4V3.281h5.215V26.429Z" transform="translate(0 0)"/><path d="M112.676,250.51c3.357-4.411,6.46-8.639,6.4-15a13.692,13.692,0,0,0-27.385,0c-.064,6.364,3.039,10.594,6.4,15-3.31.925-5.581,2.454-6.418,4.315H50.761a5.072,5.072,0,1,1,0-10.145H73.014a8.354,8.354,0,1,0,0-16.707h-20.8a5.07,5.07,0,1,1,0-10.14H66.629a1.641,1.641,0,0,0,0-3.281H52.217a8.351,8.351,0,0,0,0,16.7h20.8a5.072,5.072,0,1,1,0,10.145H50.761a8.354,8.354,0,1,0,0,16.707h40.9a7.717,7.717,0,0,0,4.289,3.58,27.505,27.505,0,0,0,18.851,0c2.994-1.264,4.643-3.118,4.643-5.221C119.448,253.872,116.914,251.7,112.676,250.51ZM94.967,235.532c0-.006,0-.012,0-.017a10.411,10.411,0,1,1,20.822,0c0,.006,0,.012,0,.017.057,5.4-2.737,9.067-5.971,13.314-.337.443-3.627,4.365-3.627,4.365a1.3,1.3,0,0,1-.811.526,1.36,1.36,0,0,1-.813-.523s-3.284-3.918-3.619-4.358C97.709,244.605,94.91,240.935,94.967,235.532Zm10.414,24.538c-6.982,0-10.79-2.382-10.79-3.605,0-.834,1.836-2.335,5.755-3.125l1.739,2.017a4.322,4.322,0,0,0,3.286,1.66h.021a4.319,4.319,0,0,0,3.282-1.661l1.741-2.016c3.917.79,5.752,2.291,5.752,3.125C116.167,257.689,112.36,260.071,105.381,260.071Z" transform="translate(-35.448 -179.352)"/><path d="M224.953,216.191a1.641,1.641,0,0,0,1.641,1.641h0a1.641,1.641,0,1,0-1.645-1.641Z" transform="translate(-188.047 -179.35)"/></g></svg>