<svg xmlns="http://www.w3.org/2000/svg" width="82.043" height="83" viewBox="0 0 82.043 83"><g transform="translate(-0.301)"><path d="M181.086,34.594l-25.98-25.98L144.167,19.553,124.613,0,122.7,1.914l21.468,21.468,10.939-10.939,24.066,24.066H174.25v2.735h9.572V29.672h-2.735Zm0,0" transform="translate(-101.478)"/><path d="M12.607,29.6A12.282,12.282,0,0,0,3.719,50.385C1.531,51.343.3,52.71.3,54.214v47.858c0,3.555,6.153,5.469,12.306,5.469s12.306-1.915,12.306-5.469V54.214c0-1.5-1.231-2.872-3.418-3.829A12.307,12.307,0,0,0,12.607,29.6Zm0,2.735a9.572,9.572,0,1,1-9.572,9.572A9.512,9.512,0,0,1,12.607,32.336Zm0,72.471c-6.153,0-9.572-1.915-9.572-2.735V98.79a21.071,21.071,0,0,0,9.572,1.915,21.073,21.073,0,0,0,9.572-1.915v3.282C22.179,102.892,18.76,104.807,12.607,104.807Zm0-6.837c-6.153,0-9.572-1.915-9.572-2.735V91.953a21.071,21.071,0,0,0,9.572,1.915,21.073,21.073,0,0,0,9.572-1.915v3.282C22.179,96.055,18.76,97.97,12.607,97.97Zm0-6.837c-6.153,0-9.572-1.915-9.572-2.735V85.116a21.072,21.072,0,0,0,9.572,1.915,21.073,21.073,0,0,0,9.572-1.915V88.4C22.179,89.219,18.76,91.133,12.607,91.133Zm0-6.837c-6.153,0-9.572-1.915-9.572-2.735V78.28a21.071,21.071,0,0,0,9.572,1.915,21.073,21.073,0,0,0,9.572-1.915v3.282C22.179,82.382,18.76,84.3,12.607,84.3Zm0-6.837c-6.153,0-9.572-1.915-9.572-2.735V71.443a21.072,21.072,0,0,0,9.572,1.915,21.073,21.073,0,0,0,9.572-1.915v3.282C22.179,75.545,18.76,77.46,12.607,77.46Zm0-6.837c-6.153,0-9.572-1.915-9.572-2.735V64.606a21.072,21.072,0,0,0,9.572,1.915,21.073,21.073,0,0,0,9.572-1.915v3.282C22.179,68.708,18.76,70.623,12.607,70.623Zm0-6.837c-6.153,0-9.572-1.915-9.572-2.735V57.769a21.072,21.072,0,0,0,9.572,1.915,21.073,21.073,0,0,0,9.572-1.915v3.282C22.179,61.871,18.76,63.786,12.607,63.786Zm9.572-9.572c0,.82-3.418,2.735-9.572,2.735s-9.572-1.915-9.572-2.735c0-.274.821-1.231,3.008-1.915a12.348,12.348,0,0,0,12.99,0C21.358,52.983,22.179,53.941,22.179,54.214Zm0,0" transform="translate(0 -24.542)"/><path d="M180.607,221.6c-6.153,0-12.306,1.914-12.306,5.47v34.184c0,3.555,6.153,5.47,12.306,5.47s12.306-1.915,12.306-5.47V227.071C192.914,223.516,186.76,221.6,180.607,221.6Zm0,42.389c-6.153,0-9.572-1.915-9.572-2.735v-3.282a24.88,24.88,0,0,0,19.143,0v3.282C190.179,262.075,186.76,263.99,180.607,263.99Zm0-6.837c-6.153,0-9.572-1.915-9.572-2.735v-3.282a24.88,24.88,0,0,0,19.143,0v3.282C190.179,255.238,186.76,257.153,180.607,257.153Zm0-6.837c-6.153,0-9.572-1.915-9.572-2.735V244.3a24.88,24.88,0,0,0,19.143,0v3.282C190.179,248.4,186.76,250.316,180.607,250.316Zm0-6.837c-6.153,0-9.572-1.915-9.572-2.735v-3.282a24.88,24.88,0,0,0,19.143,0v3.282C190.179,241.565,186.76,243.48,180.607,243.48Zm0-6.837c-6.153,0-9.572-1.915-9.572-2.735v-3.282a24.88,24.88,0,0,0,19.143,0v3.282C190.179,234.728,186.76,236.643,180.607,236.643Zm0-6.837c-6.153,0-9.572-1.915-9.572-2.735s3.418-2.735,9.572-2.735,9.572,1.914,9.572,2.735S186.76,229.806,180.607,229.806Zm0,0" transform="translate(-139.285 -183.725)"/><path d="M348.607,261.6c-6.153,0-12.306,1.914-12.306,5.469v27.348c0,3.555,6.153,5.469,12.306,5.469s12.306-1.915,12.306-5.469V267.071C360.914,263.516,354.76,261.6,348.607,261.6Zm0,35.552c-6.153,0-9.572-1.915-9.572-2.735v-3.282a24.88,24.88,0,0,0,19.143,0v3.282C358.179,295.238,354.76,297.153,348.607,297.153Zm0-6.837c-6.153,0-9.572-1.915-9.572-2.735V284.3a24.879,24.879,0,0,0,19.143,0v3.282C358.179,288.4,354.76,290.316,348.607,290.316Zm0-6.837c-6.153,0-9.572-1.915-9.572-2.735v-3.282a24.88,24.88,0,0,0,19.143,0v3.282C358.179,281.565,354.76,283.48,348.607,283.48Zm0-6.837c-6.153,0-9.572-1.915-9.572-2.735v-3.282a24.88,24.88,0,0,0,19.143,0v3.282C358.179,274.728,354.76,276.643,348.607,276.643Zm0-6.837c-6.153,0-9.572-1.915-9.572-2.735s3.418-2.735,9.572-2.735,9.572,1.914,9.572,2.735S354.76,269.806,348.607,269.806Zm0,0" transform="translate(-278.57 -216.888)"/><path d="M230.8,130.4l-16-16-10.939,10.939-7.247-7.247L194.7,120l9.162,9.162L214.8,118.227l14.084,14.084Zm0,0" transform="translate(-161.171 -94.845)"/><path d="M154.762,98l1.934-1.934,4.061,4.061-1.934,1.934Zm0,0" transform="translate(-128.06 -79.647)"/></g></svg>