<svg xmlns="http://www.w3.org/2000/svg" width="76.1" height="76.561" viewBox="0 0 76.1 76.561"><g transform="translate(-16 -16)"><path d="M73.166,68.1A22.994,22.994,0,0,0,56.218,32.692L53.959,27.01a1.268,1.268,0,0,0-1.178-.8H45.093a10.555,10.555,0,0,0,.079-1.276c0-4.925-3.414-8.932-7.61-8.932s-7.61,4.007-7.61,8.932a10.493,10.493,0,0,0,.079,1.276h-7.69a1.268,1.268,0,0,0-1.178.8L16.091,39.77a1.283,1.283,0,0,0-.091.474v51.04a1.272,1.272,0,0,0,1.268,1.276H57.855a1.272,1.272,0,0,0,1.268-1.276V77.952A22.69,22.69,0,0,0,68,73.726L85.6,91.439a3.789,3.789,0,0,0,5.381,0,3.845,3.845,0,0,0,0-5.414Zm1.177-12.542A20.294,20.294,0,1,1,54.05,35.14,20.355,20.355,0,0,1,74.343,55.556ZM23.61,84.9V77.248h2.537V84.9Zm5.073-7.656H31.22V84.9H28.683Zm5.073,0h2.537V84.9H33.757Zm5.073,0h2.537V84.9H38.83Zm5.073,0H46.44v-.038l.106.038H46.44V84.9H43.9Zm5.073.7a22.558,22.558,0,0,0,2.537.43V84.9H48.976ZM33.017,64.488h-6.87V44.072h8.138a23.069,23.069,0,0,0-1.268,20.416Zm4.545-30.624a1.276,1.276,0,1,1-1.268,1.276A1.272,1.272,0,0,1,37.562,33.864ZM53.447,32.6a22.6,22.6,0,0,0-12.411,4.1,3.845,3.845,0,0,0-.284-3.641,3.8,3.8,0,0,0-3.191-1.742,4.819,4.819,0,0,1-4.056-2.552H51.923ZM32.488,24.932c0-3.518,2.276-6.38,5.073-6.38s5.073,2.862,5.073,6.38a7.949,7.949,0,0,1-.1,1.275H32.591a7.969,7.969,0,0,1-.1-1.276Zm24.1,65.076H18.537V72.144H19.8a1.276,1.276,0,0,0,0-2.552H18.537V40.49L23.2,28.76h7.487a8.418,8.418,0,0,0,3.694,4.283,3.845,3.845,0,0,0,.045,4.265,3.792,3.792,0,0,0,3.941,1.572,23.116,23.116,0,0,0-2.376,2.639H24.878A1.272,1.272,0,0,0,23.61,42.8V65.764a1.272,1.272,0,0,0,1.268,1.276h9.406A23.089,23.089,0,0,0,41.446,74.7h-19.1a1.272,1.272,0,0,0-1.268,1.276V86.18a1.272,1.272,0,0,0,1.268,1.276h30.44A1.272,1.272,0,0,0,54.05,86.18V78.524a22.822,22.822,0,0,0,2.537-.143Zm32.6-.374a1.263,1.263,0,0,1-1.793,0L69.92,72.051a23.153,23.153,0,0,0,1.725-1.874L89.192,87.83a1.281,1.281,0,0,1,0,1.8Z"/><path d="M65.317,354.633H67.95a1.317,1.317,0,1,0,0-2.633H65.317a1.317,1.317,0,1,0,0,2.633Z" transform="translate(-40.1 -282.467)"/><path d="M113.317,354.633h2.633a1.317,1.317,0,1,0,0-2.633h-2.633a1.317,1.317,0,1,0,0,2.633Z" transform="translate(-80.822 -282.467)"/><path d="M144,170.433A18.433,18.433,0,1,0,162.433,152,18.433,18.433,0,0,0,144,170.433Zm34.233,0a15.8,15.8,0,1,1-15.8-15.8,15.8,15.8,0,0,1,15.8,15.8Z" transform="translate(-108.384 -114.913)"/><path d="M234.633,209.317v1.543a3.95,3.95,0,0,0,1.317,7.674,1.317,1.317,0,1,1-1.317,1.317,1.317,1.317,0,0,0-2.633,0,3.956,3.956,0,0,0,2.633,3.724v1.543a1.317,1.317,0,0,0,2.633,0v-1.543a3.95,3.95,0,0,0-1.317-7.674,1.317,1.317,0,1,1,1.317-1.317,1.317,1.317,0,1,0,2.633,0,3.956,3.956,0,0,0-2.633-3.724v-1.543a1.317,1.317,0,1,0-2.633,0Z" transform="translate(-181.9 -161.673)"/></g></svg>