<svg xmlns="http://www.w3.org/2000/svg" width="81.895" height="71.815" viewBox="0 0 81.895 71.815"><defs><style>.a{fill-rule:evenodd;}</style></defs><path class="a" d="M7.743,37.074a1.6,1.6,0,0,1-2.386-.211L.373,30.925a1.6,1.6,0,1,1,2.455-2.054l2.446,2.915a35.913,35.913,0,0,1,70.744-3.6,1.6,1.6,0,0,1-3.132.677A32.706,32.706,0,0,0,8.442,32.309l3.183-2.671a1.6,1.6,0,0,1,2.054,2.455Zm21.814-4.461-1.741-5.331h8.332a1.6,1.6,0,0,0,0-3.206h-9.38L25.16,19.149a1.6,1.6,0,0,0-1.521-1.106l-6,0a1.6,1.6,0,0,0,0,3.206h4.845l8.614,26.378a5.84,5.84,0,1,0,6.4,3.086h11.13a5.843,5.843,0,1,0,9.344-1.487A5.9,5.9,0,0,0,53.827,47.5H34.42L33.5,44.676l20.335,0a1.6,1.6,0,0,0,1.521-1.106L61,26.274a1.6,1.6,0,0,0-1.488-2.2H48.972a1.6,1.6,0,0,0,0,3.206H57.3l-1.741,5.331Zm24.96,3.2H30.6l1.846,5.653H52.671ZM42.56,24.075a1.6,1.6,0,1,0,1.6,1.6A1.6,1.6,0,0,0,42.56,24.075ZM53.941,50.707a2.627,2.627,0,1,1-.294,0A1.916,1.916,0,0,1,53.941,50.707Zm-19.8.776a2.635,2.635,0,1,1-1.864-.772A2.628,2.628,0,0,1,34.138,51.483Zm36.131-9.305,3.183-2.671A32.706,32.706,0,0,1,9.008,42.953a1.6,1.6,0,0,0-3.131.676,35.911,35.911,0,0,0,70.744-3.6l2.447,2.915a1.6,1.6,0,0,0,2.455-2.054l-4.983-5.939a1.6,1.6,0,0,0-2.386-.211l-5.937,4.982a1.6,1.6,0,1,0,2.054,2.455Zm0,0" transform="translate(0)"/></svg>