<svg xmlns="http://www.w3.org/2000/svg" width="71.839" height="71.84" viewBox="0 0 71.839 71.84"><path d="M89.35,20.808A3.115,3.115,0,0,0,92.462,17.7V12.118a5.726,5.726,0,1,1,11.447,0V17.7a3.112,3.112,0,1,0,6.224,0V12.286A12.256,12.256,0,0,0,98.2,0h-.032A12.256,12.256,0,0,0,86.238,12.286V17.7A3.115,3.115,0,0,0,89.35,20.808Zm-1.007-8.523a9.848,9.848,0,1,1,19.685,0V17.7a1.007,1.007,0,0,1-2.014,0V12.118a8.037,8.037,0,0,0-7.777-8l-.1,0v0a8.037,8.037,0,0,0-7.777,8V17.7a1.007,1.007,0,1,1-2.014,0Zm0,0" transform="translate(-74.138)"/><path d="M293.735,330.656a2.672,2.672,0,0,0-2.669,2.669V335.3a4.408,4.408,0,0,1-4.509,4.4,4.482,4.482,0,0,1-4.3-4.5v-1.872a2.669,2.669,0,1,0-5.338,0V335.3a9.752,9.752,0,0,0,9.74,9.742h.153a9.851,9.851,0,0,0,9.591-9.872v-1.842A2.673,2.673,0,0,0,293.735,330.656Zm.565,4.511a7.736,7.736,0,0,1-7.518,7.768,7.647,7.647,0,0,1-7.756-7.636v-1.974a.565.565,0,0,1,1.129,0V335.2a6.6,6.6,0,0,0,6.351,6.608,6.514,6.514,0,0,0,6.664-6.506v-1.974a.565.565,0,0,1,1.129,0Zm0,0" transform="translate(-238.066 -284.261)"/><path d="M224.184,302.641H183.692l-3,26.249,2.79,3.127h40.9l2.79-3.127Zm-.737,27.271H184.428l-1.535-1.72,2.676-23.446h36.737l2.676,23.446Zm0,0" transform="translate(-155.342 -260.176)"/><path d="M95,204.077h.9v-2.1H77.333l-.6-2.242H71.32v2.1h3.8l3.675,13.757h.464a3.119,3.119,0,1,0,5.9,0H88.01v-2.1h-7.6l-.216-.81H92.7ZM82.208,215.592a1.014,1.014,0,1,1-1.015,1.014A1.015,1.015,0,0,1,82.208,215.592Zm-.3-5.019H79.637l-.588-2.2H81.9Zm0-4.3H78.486l-.588-2.2h4Zm4.811,4.3H84.008v-2.2h2.706Zm0-4.3H84.008v-2.2h2.706Zm4.37,4.3H88.819v-2.2h2.853Zm-2.266-4.3v-2.2h4l-.588,2.2Zm0,0" transform="translate(-61.313 -171.706)"/><path d="M3.983,141.1,2.139,139.18l.019-.477H17.614v-2.1H2.241L4.264,85.417h6.083v-2.1H2.241L0,139.994l.311.323,2.155,2.241.869.9H24.854v-2.1H4.231Zm0,0" transform="translate(0 -71.623)"/><path d="M143.094,83.313h7.939v2.1h-7.939Zm0,0" transform="translate(-123.016 -71.623)"/><path d="M276.524,112.374l2.1-.083-1.144-28.978h-8.452v2.1h6.428Zm0,0" transform="translate(-231.283 -71.623)"/><path d="M290.083,140.19l-.639-16.163,2.1-.083.639,16.163Zm-.694-17.565-.083-2.1,2.1-.083.083,2.1Zm-.139-3.506-.083-2.1,2.1-.083.083,2.1Zm0,0" transform="translate(-248.594 -100.526)"/><path d="M455.71,355.4l-1.489-13.045,2.092-.238L457.8,355.16Zm-1.648-14.438-.238-2.091,2.091-.239.238,2.091Zm-.4-3.485-.238-2.091,2.091-.239.239,2.092Zm0,0" transform="translate(-389.805 -288.12)"/></svg>