<svg xmlns="http://www.w3.org/2000/svg" width="84.184" height="84.146" viewBox="0 0 84.184 84.146"><g transform="translate(0 -0.115)"><g transform="translate(0 0.115)"><path d="M258.37,7.018a13.712,13.712,0,0,1,20.207,0A1.233,1.233,0,0,0,280.4,5.359a16.19,16.19,0,0,0-23.858,0,1.233,1.233,0,1,0,1.826,1.659Z" transform="translate(-214.095 -0.115)"/><path d="M295.139,38.507a1.233,1.233,0,0,0,1.825-1.659,10.684,10.684,0,0,0-15.743,0,1.233,1.233,0,0,0,1.825,1.659A8.206,8.206,0,0,1,295.139,38.507Z" transform="translate(-234.714 -27.917)"/><path d="M309.243,65.819a5.284,5.284,0,0,0-3.907,1.731,1.233,1.233,0,1,0,1.827,1.657,2.828,2.828,0,0,1,4.161,0,1.233,1.233,0,1,0,1.827-1.657A5.285,5.285,0,0,0,309.243,65.819Z" transform="translate(-254.865 -55.016)"/><path d="M71.833,115.427H55.639v-7.968a1.233,1.233,0,0,0-2.466,0v7.968H28.782a1.233,1.233,0,0,0,0,2.466H71.833a9.9,9.9,0,0,1,9.885,9.885v42.688H79.252V136.5a1.233,1.233,0,0,0-2.466,0v33.968H68.133v-21.15a3.517,3.517,0,0,0-3.512-3.514H25.116a3.518,3.518,0,0,0-3.514,3.514v2.6H16.937a3.517,3.517,0,0,0-3.513,3.513v15.04H7.4V127.779a4.958,4.958,0,0,1,4.952-4.952H22.463a.736.736,0,0,1,.66.406l1.411,2.794a3.191,3.191,0,0,0,2.862,1.761H56.788a3.19,3.19,0,0,0,2.862-1.761l1.411-2.794a.736.736,0,0,1,.66-.406H71.833a4.958,4.958,0,0,1,4.952,4.952v3.062a1.233,1.233,0,0,0,2.466,0v-3.062a7.427,7.427,0,0,0-7.419-7.419H61.722a3.19,3.19,0,0,0-2.862,1.761l-1.411,2.794a.736.736,0,0,1-.66.406H27.4a.736.736,0,0,1-.66-.406l-1.411-2.794a3.19,3.19,0,0,0-2.862-1.761H12.351a7.427,7.427,0,0,0-7.419,7.419v42.687H2.466V167.7A1.233,1.233,0,0,0,0,167.7v4a1.233,1.233,0,0,0,1.233,1.233H82.951a1.233,1.233,0,0,0,1.233-1.233V127.778a12.365,12.365,0,0,0-12.351-12.351ZM15.89,170.466v-15.04a1.048,1.048,0,0,1,1.047-1.047H56.442a1.048,1.048,0,0,1,1.047,1.047v15.04Zm44.065,0v-15.04a3.517,3.517,0,0,0-3.513-3.513H24.068v-2.6a1.048,1.048,0,0,1,1.047-1.047H64.621a1.048,1.048,0,0,1,1.046,1.047v21.15Z" transform="translate(0 -88.786)"/><path d="M1.233,209.977a1.233,1.233,0,0,0,1.233-1.233V174.492a9.9,9.9,0,0,1,9.885-9.885h10.6a1.233,1.233,0,0,0,0-2.466h-10.6A12.365,12.365,0,0,0,0,174.492v34.252a1.233,1.233,0,0,0,1.233,1.233Z" transform="translate(0 -135.5)"/><path d="M64.76,263.264v2.2a1.233,1.233,0,0,0,2.466,0v-2.2A1.233,1.233,0,0,0,64.76,263.264Z" transform="translate(-54.112 -218.974)"/><path d="M88.463,252.217v4.016a1.233,1.233,0,0,0,2.466,0v-4.016A1.233,1.233,0,0,0,88.463,252.217Z" transform="translate(-73.918 -209.743)"/><path d="M112.166,232.049v7.332a1.233,1.233,0,0,0,2.466,0v-7.332a1.233,1.233,0,0,0-2.466,0Z" transform="translate(-93.723 -192.891)"/></g></g></svg>