<svg xmlns="http://www.w3.org/2000/svg" width="71.951" height="72.561" viewBox="0 0 71.951 72.561"><g transform="translate(-2.143)"><path d="M71.006,36.821H55.917V34.162a1.806,1.806,0,0,0-1.8-1.8H41.922a1.806,1.806,0,0,0-1.8,1.8v2.659H38.142v-9.9a3.522,3.522,0,0,0-3.518-3.518h-4.3V4.246a2.111,2.111,0,0,0-2.109-2.109H26.57V1.659A1.661,1.661,0,0,0,24.911,0h-8.25A1.661,1.661,0,0,0,15,1.659v.479H13.358A2.111,2.111,0,0,0,11.25,4.246v19.16H5.662a3.523,3.523,0,0,0-3.519,3.518v10.95a1.065,1.065,0,0,0,2.131,0V26.925a1.39,1.39,0,0,1,1.388-1.388H34.624a1.389,1.389,0,0,1,1.388,1.388v37.2a1.39,1.39,0,0,1-1.388,1.388H5.662a1.39,1.39,0,0,1-1.388-1.388V42.135a1.065,1.065,0,0,0-2.131,0V64.126a3.523,3.523,0,0,0,3.519,3.518H7.828v3.847a1.065,1.065,0,0,0,2.131,0V67.645H21.941v1.827a3.092,3.092,0,0,0,3.089,3.089H71.006a3.092,3.092,0,0,0,3.089-3.089V39.91a3.092,3.092,0,0,0-3.089-3.089ZM17.133,2.131h7.306V4.275H17.133ZM13.38,4.268H15v.479a1.66,1.66,0,0,0,1.659,1.659h8.25A1.66,1.66,0,0,0,26.57,4.747V4.268h1.622V23.406H13.38ZM63.317,38.952V70.279H61.186V38.952ZM38.142,64.126V38.952h9.875a1.065,1.065,0,1,0,0-2.131H42.248V34.489H53.787v2.333H52.279a1.065,1.065,0,0,0,0,2.131h6.777V70.43h-26.6V67.645h2.166a3.522,3.522,0,0,0,3.518-3.518ZM24.071,69.472V67.645h6.256V70.43h-5.3A.959.959,0,0,1,24.071,69.472Zm47.893,0a.959.959,0,0,1-.958.958H65.448V38.952h5.558a.959.959,0,0,1,.958.958Z"/><path d="M275.458,392.457h7.871a2.391,2.391,0,0,0,2.388-2.388v-3.1a2.391,2.391,0,0,0-2.388-2.388h-7.871a2.391,2.391,0,0,0-2.388,2.388v3.1A2.391,2.391,0,0,0,275.458,392.457Zm-.258-5.488a.258.258,0,0,1,.258-.258h7.871a.258.258,0,0,1,.258.258v3.1a.258.258,0,0,1-.258.258h-7.871a.258.258,0,0,1-.258-.258Z" transform="translate(-232.446 -329.957)"/><path d="M52.894,241.033V212.045a1.065,1.065,0,0,0-2.131,0v28.988a1.065,1.065,0,1,0,2.131,0Z" transform="translate(-41.714 -181.013)"/><path d="M99.966,241.033V212.045a1.065,1.065,0,0,0-2.131,0v28.988a1.065,1.065,0,1,0,2.131,0Z" transform="translate(-82.1 -181.013)"/><path d="M147.037,241.033V212.045a1.065,1.065,0,1,0-2.131,0v28.988a1.065,1.065,0,1,0,2.131,0Z" transform="translate(-122.486 -181.013)"/><path d="M194.108,241.033V212.045a1.065,1.065,0,0,0-2.131,0v28.988a1.065,1.065,0,1,0,2.131,0Z" transform="translate(-162.871 -181.013)"/></g></svg>