<svg xmlns="http://www.w3.org/2000/svg" width="82.69" height="83" viewBox="0 0 82.69 83"><g transform="translate(-0.956 0)"><g transform="translate(20.527 22.882)"><path d="M123.3,144.385a1.62,1.62,0,1,1,1.59-1.3A1.634,1.634,0,0,1,123.3,144.385Z" transform="translate(-121.681 -141.147)"/><g transform="translate(29.625 33.289)"><path d="M306.047,349.731a1.62,1.62,0,1,1,1.6-1.367A1.636,1.636,0,0,1,306.047,349.731Z" transform="translate(-304.427 -346.494)"/></g></g><g transform="translate(0.956 0.001)"><g transform="translate(0 0)"><path d="M83.545,12.051A1.621,1.621,0,0,0,82.146,11l-8.838-.661L72.647,1.5A1.621,1.621,0,0,0,69.884.475L62.82,7.539a6.508,6.508,0,0,0-1.908,4.379c0,.029,0,.059,0,.088l.1,5.413a36.929,36.929,0,1,0,5.286,5.23l5.35.086h.085a6.51,6.51,0,0,0,4.379-1.908l7.064-7.064a1.621,1.621,0,0,0,.373-1.71ZM65.113,9.832l4.565-4.565.446,5.963-5.879,5.888L64.154,12A3.276,3.276,0,0,1,65.113,9.832ZM37.847,79.758A33.647,33.647,0,1,1,60.3,21.07l-3.755,3.754a28.32,28.32,0,0,0-28.3-5.382,1.621,1.621,0,1,0,1.1,3.049,25.082,25.082,0,0,1,24.9,4.629l-3.761,3.761a19.8,19.8,0,1,0-3.642,32.865,1.621,1.621,0,1,0-1.478-2.886,16.344,16.344,0,0,1-7.519,1.808A16.557,16.557,0,1,1,48.182,33.186L44.4,36.967a11.269,11.269,0,1,0,2.336,2.249L50.5,35.449a16.541,16.541,0,0,1,3.063,15.87,1.621,1.621,0,0,0,3.077,1.022A19.784,19.784,0,0,0,52.8,33.15l3.755-3.755a25.1,25.1,0,1,1-39,1.945,1.621,1.621,0,0,0-2.618-1.912A28.347,28.347,0,1,0,58.853,27.1L62.6,23.348a33.63,33.63,0,0,1-24.758,56.41Zm8.012-33.647A8.019,8.019,0,1,1,42.065,39.3l-5.171,5.17a1.621,1.621,0,1,0,2.293,2.293l5.232-5.232A7.967,7.967,0,0,1,45.859,46.111ZM73.815,18.533a3.278,3.278,0,0,1-2.166.959l-5.1-.083L69.658,16.3c.035-.035.067-.071.1-.108l2.661-2.665,5.962.446Z" transform="translate(-0.956 -0.001)"/></g></g></g></svg>