<svg xmlns="http://www.w3.org/2000/svg" xmlns:xlink="http://www.w3.org/1999/xlink" width="757.434" height="620.511" viewBox="0 0 757.434 620.511"><defs><style>.a{fill:#f7f7f7;}.b,.d,.j,.k,.l,.m,.r{fill:#fff;}.aa,.c{fill:none;}.c{stroke:rgba(112,112,112,0.21);}.e,.g,.w,.x{fill:#121111;}.e,.g,.k{font-size:6px;}.e,.j,.k{font-family:Oswald-Regular, Oswald;}.f,.g{font-family:Oswald-Bold, Oswald;font-weight:700;}.h{fill:#81a6cc;}.i{fill:#3768a7;}.j,.l{font-size:5px;}.l{font-family:Oswald-Light, Oswald;font-weight:300;}.m,.r{font-size:15px;font-family:Oswald-SemiBold, Oswald;font-weight:600;}.m{letter-spacing:-0.041em;}.n{fill:#dc7647;}.o{fill:#a55c5e;}.p{fill:#69c16f;}.q{fill:#2ea082;}.r{letter-spacing:-0.011em;}.s{fill:#a687ff;}.t{fill:#7c6dff;}.u{fill:#20aaa5;}.v{fill:#195c6f;}.w{font-size:1px;}.w,.x{font-family:Montserrat-Regular, Montserrat;}.x{font-size:2px;}.y{fill:#efedeb;}.z{fill:#cbc8c5;}.aa{stroke:#707070;stroke-width:0.5px;}.ab,.ac{stroke:none;}.ac{fill:rgba(112,112,112,0.25);}.ad{filter:url(#ai);}.ae{filter:url(#ag);}.af{filter:url(#ae);}.ag{filter:url(#ac);}.ah{filter:url(#aa);}.ai{filter:url(#y);}.aj{filter:url(#w);}.ak{filter:url(#u);}.al{filter:url(#s);}.am{filter:url(#q);}.an{filter:url(#o);}.ao{filter:url(#m);}.ap{filter:url(#k);}.aq{filter:url(#i);}.ar{filter:url(#g);}.as{filter:url(#e);}.at{filter:url(#c);}.au{filter:url(#a);}</style><filter id="a" x="93.903" y="0" width="663.531" height="534.834" filterUnits="userSpaceOnUse"><feOffset dy="3" input="SourceAlpha"/><feGaussianBlur stdDeviation="3" result="b"/><feFlood flood-opacity="0.161"/><feComposite operator="in" in2="b"/><feComposite in="SourceGraphic"/></filter><filter id="c" x="116.877" y="221.736" width="617.864" height="138.186" filterUnits="userSpaceOnUse"><feOffset dy="3" input="SourceAlpha"/><feGaussianBlur stdDeviation="3" result="d"/><feFlood flood-opacity="0.161"/><feComposite operator="in" in2="d"/><feComposite in="SourceGraphic"/></filter><filter id="e" x="116.14" y="357.682" width="290.242" height="129.615" filterUnits="userSpaceOnUse"><feOffset dy="3" input="SourceAlpha"/><feGaussianBlur stdDeviation="3" result="f"/><feFlood flood-opacity="0.161"/><feComposite operator="in" in2="f"/><feComposite in="SourceGraphic"/></filter><filter id="g" x="399.626" y="365.226" width="336.66" height="146.744" filterUnits="userSpaceOnUse"><feOffset dy="3" input="SourceAlpha"/><feGaussianBlur stdDeviation="3" result="h"/><feFlood flood-opacity="0.161"/><feComposite operator="in" in2="h"/><feComposite in="SourceGraphic"/></filter><filter id="i" x="117.37" y="162.534" width="111.345" height="73.425" filterUnits="userSpaceOnUse"><feOffset dy="3" input="SourceAlpha"/><feGaussianBlur stdDeviation="3" result="j"/><feFlood flood-opacity="0.161"/><feComposite operator="in" in2="j"/><feComposite in="SourceGraphic"/></filter><filter id="k" x="214.089" y="154.766" width="121.375" height="76.636" filterUnits="userSpaceOnUse"><feOffset dy="3" input="SourceAlpha"/><feGaussianBlur stdDeviation="3" result="l"/><feFlood flood-opacity="0.161"/><feComposite operator="in" in2="l"/><feComposite in="SourceGraphic"/></filter><filter id="m" x="321.209" y="146.116" width="133.112" height="80.239" filterUnits="userSpaceOnUse"><feOffset dy="3" input="SourceAlpha"/><feGaussianBlur stdDeviation="3" result="n"/><feFlood flood-opacity="0.161"/><feComposite operator="in" in2="n"/><feComposite in="SourceGraphic"/></filter><filter id="o" x="439.675" y="136.286" width="146.87" height="84.291" filterUnits="userSpaceOnUse"><feOffset dy="3" input="SourceAlpha"/><feGaussianBlur stdDeviation="3" result="p"/><feFlood flood-opacity="0.161"/><feComposite operator="in" in2="p"/><feComposite in="SourceGraphic"/></filter><filter id="q" x="572.652" y="125.622" width="163.295" height="88.887" filterUnits="userSpaceOnUse"><feOffset dy="3" input="SourceAlpha"/><feGaussianBlur stdDeviation="3" result="r"/><feFlood flood-opacity="0.161"/><feComposite operator="in" in2="r"/><feComposite in="SourceGraphic"/></filter><filter id="s" x="0" y="111.575" width="590.486" height="500.56" filterUnits="userSpaceOnUse"><feOffset dy="3" input="SourceAlpha"/><feGaussianBlur stdDeviation="3" result="t"/><feFlood flood-opacity="0.161"/><feComposite operator="in" in2="t"/><feComposite in="SourceGraphic"/></filter><filter id="u" x="20.714" y="315.385" width="549.978" height="132.687" filterUnits="userSpaceOnUse"><feOffset dy="3" input="SourceAlpha"/><feGaussianBlur stdDeviation="3" result="v"/><feFlood flood-opacity="0.161"/><feComposite operator="in" in2="v"/><feComposite in="SourceGraphic"/></filter><filter id="w" x="20.05" y="424.888" width="261.545" height="132.289" filterUnits="userSpaceOnUse"><feOffset dy="3" input="SourceAlpha"/><feGaussianBlur stdDeviation="3" result="x"/><feFlood flood-opacity="0.161"/><feComposite operator="in" in2="x"/><feComposite in="SourceGraphic"/></filter><filter id="y" x="273.579" y="441.471" width="298.462" height="148.696" filterUnits="userSpaceOnUse"><feOffset dy="3" input="SourceAlpha"/><feGaussianBlur stdDeviation="3" result="z"/><feFlood flood-opacity="0.161"/><feComposite operator="in" in2="z"/><feComposite in="SourceGraphic"/></filter><filter id="aa" x="21.158" y="243.285" width="101.899" height="67.013" filterUnits="userSpaceOnUse"><feOffset dy="3" input="SourceAlpha"/><feGaussianBlur stdDeviation="3" result="ab"/><feFlood flood-opacity="0.161"/><feComposite operator="in" in2="ab"/><feComposite in="SourceGraphic"/></filter><filter id="ac" x="108.082" y="240.043" width="110.41" height="69.533" filterUnits="userSpaceOnUse"><feOffset dy="3" input="SourceAlpha"/><feGaussianBlur stdDeviation="3" result="ad"/><feFlood flood-opacity="0.161"/><feComposite operator="in" in2="ad"/><feComposite in="SourceGraphic"/></filter><filter id="ae" x="203.831" y="236.455" width="120.286" height="72.325" filterUnits="userSpaceOnUse"><feOffset dy="3" input="SourceAlpha"/><feGaussianBlur stdDeviation="3" result="af"/><feFlood flood-opacity="0.161"/><feComposite operator="in" in2="af"/><feComposite in="SourceGraphic"/></filter><filter id="ag" x="309.087" y="232.294" width="131.751" height="75.425" filterUnits="userSpaceOnUse"><feOffset dy="3" input="SourceAlpha"/><feGaussianBlur stdDeviation="3" result="ah"/><feFlood flood-opacity="0.161"/><feComposite operator="in" in2="ah"/><feComposite in="SourceGraphic"/></filter><filter id="ai" x="426.45" y="228.042" width="145.294" height="78.887" filterUnits="userSpaceOnUse"><feOffset dy="3" input="SourceAlpha"/><feGaussianBlur stdDeviation="3" result="aj"/><feFlood flood-opacity="0.161"/><feComposite operator="in" in2="aj"/><feComposite in="SourceGraphic"/></filter></defs><g transform="translate(-43.688 58.892) scale(0.934 1)"><g transform="translate(130.665 -0.383)"><g class="au" transform="matrix(1.07, 0, 0, 1, -83.87, -58.51)"><rect class="a" width="637.308" height="427.864" transform="translate(78.85 58.89) scale(0.93 1)"/></g><g class="at" transform="matrix(1.07, 0, 0, 1, -83.87, -58.51)"><g class="b" transform="translate(106.99 241.81) scale(0.93 1)"><path class="ab" d="M8.682,0h573c4.795,0,8.682,1.813,8.682,4.048v92.3c0,2.236-3.887,4.048-8.682,4.048h-573C3.887,100.4,0,98.589,0,96.353V4.048C0,1.813,3.887,0,8.682,0Z"/><path class="ac" d="M 8.68182373046875 1.000038146972656 C 6.5057373046875 1.000038146972656 4.47564697265625 1.38787841796875 2.9654541015625 2.092109680175781 C 1.7347412109375 2.666038513183594 1 3.397346496582031 1 4.048500061035156 L 1 96.35326385498047 C 1 97.00441741943359 1.7347412109375 97.73572540283203 2.9654541015625 98.30965423583984 C 4.47564697265625 99.01388549804688 6.5057373046875 99.40172576904297 8.68182373046875 99.40172576904297 L 581.6828002929688 99.40172576904297 C 583.85888671875 99.40172576904297 585.8889770507812 99.01388549804688 587.3991088867188 98.30965423583984 C 588.6298217773438 97.73580169677734 589.3645629882812 97.00441741943359 589.3645629882812 96.35326385498047 L 589.3645629882812 4.048500061035156 C 589.3645629882812 3.397346496582031 588.6298217773438 2.665962219238281 587.3991088867188 2.092109680175781 C 585.8889770507812 1.38787841796875 583.85888671875 1.000038146972656 581.6828002929688 1.000038146972656 L 8.68182373046875 1.000038146972656 M 8.68182373046875 3.814697265625e-05 L 581.6828002929688 3.814697265625e-05 C 586.4776611328125 3.814697265625e-05 590.3645629882812 1.812576293945312 590.3645629882812 4.048500061035156 L 590.3645629882812 96.35326385498047 C 590.3645629882812 98.58918762207031 586.4776611328125 100.401725769043 581.6828002929688 100.401725769043 L 8.68182373046875 100.401725769043 C 3.886962890625 100.401725769043 0 98.58918762207031 0 96.35326385498047 L 0 4.048500061035156 C 0 1.812576293945312 3.886962890625 3.814697265625e-05 8.68182373046875 3.814697265625e-05 Z"/></g></g><g class="as" transform="matrix(1.07, 0, 0, 1, -83.87, -58.51)"><g class="b" transform="translate(106.1 368.74) scale(0.93 1)"><path class="ab" d="M4.539,0H304.122a4.315,4.315,0,0,1,4.539,4.048v92.3a4.315,4.315,0,0,1-4.539,4.048H4.539A4.315,4.315,0,0,1,0,96.353V4.048A4.315,4.315,0,0,1,4.539,0Z"/><path class="ac" d="M 4.53912353515625 1 C 2.587646484375 1 1 2.367538452148438 1 4.0484619140625 L 1 96.35330200195312 C 1 98.03422546386719 2.587646484375 99.40176391601562 4.53912353515625 99.40176391601562 L 304.1218566894531 99.40176391601562 C 306.0733642578125 99.40176391601562 307.6610107421875 98.03422546386719 307.6610107421875 96.35330200195312 L 307.6610107421875 4.0484619140625 C 307.6610107421875 2.367538452148438 306.0733642578125 1 304.1218566894531 1 L 4.53912353515625 1 M 4.53912353515625 0 L 304.1218566894531 0 C 306.6287231445312 0 308.6610107421875 1.812538146972656 308.6610107421875 4.0484619140625 L 308.6610107421875 96.35330200195312 C 308.6610107421875 98.58918762207031 306.6287231445312 100.4017639160156 304.1218566894531 100.4017639160156 L 4.53912353515625 100.4017639160156 C 2.0322265625 100.4017639160156 0 98.58918762207031 0 96.35330200195312 L 0 4.0484619140625 C 0 1.812538146972656 2.0322265625 0 4.53912353515625 0 Z"/></g></g><g class="ar" transform="matrix(1.07, 0, 0, 1, -83.87, -58.51)"><g class="b" transform="translate(404.61 368.74) scale(0.93 1)"><path class="ab" d="M4.011,0h264.7a4.03,4.03,0,0,1,4.011,4.048v92.3a4.03,4.03,0,0,1-4.011,4.048H4.011A4.03,4.03,0,0,1,0,96.353V4.048A4.03,4.03,0,0,1,4.011,0Z"/><path class="ac" d="M 4.010650634765625 0.9999923706054688 C 2.3505859375 0.9999923706054688 1 2.367523193359375 1 4.048454284667969 L 1 96.353271484375 C 1 98.03424072265625 2.3505859375 99.40177154541016 4.010650634765625 99.40177154541016 L 268.7136840820312 99.40177154541016 C 270.373779296875 99.40177154541016 271.724365234375 98.03424072265625 271.724365234375 96.353271484375 L 271.724365234375 4.048454284667969 C 271.724365234375 2.367523193359375 270.373779296875 0.9999923706054688 268.7136840820312 0.9999923706054688 L 4.010650634765625 0.9999923706054688 M 4.010650634765625 -7.62939453125e-06 L 268.7136840820312 -7.62939453125e-06 C 270.9287109375 -7.62939453125e-06 272.724365234375 1.81256103515625 272.724365234375 4.048454284667969 L 272.724365234375 96.353271484375 C 272.724365234375 98.58920288085938 270.9287109375 100.4017715454102 268.7136840820312 100.4017715454102 L 4.010650634765625 100.4017715454102 C 1.795623779296875 100.4017715454102 0 98.58920288085938 0 96.353271484375 L 0 4.048454284667969 C 0 1.81256103515625 1.795623779296875 -7.62939453125e-06 4.010650634765625 -7.62939453125e-06 Z"/></g></g><g transform="translate(44.745 207.632)"><line class="c" x2="560.413"/><line class="c" x2="560.413" transform="translate(0 25.874)"/><line class="c" x2="560.413" transform="translate(0 51.749)"/></g><rect class="d" width="637.308" height="34.907" transform="translate(0.596 0.383)"/><text class="e" transform="translate(32.511 171.947)"><tspan x="0" y="0">CONNECTED CONSUMERS PER DAY</tspan></text><text class="e" transform="translate(34.506 81.187)"><tspan x="0" y="0">FILTRAR POR : </tspan><tspan class="f" y="0">CUSTOMER</tspan><tspan y="0"> </tspan></text><text class="g" transform="translate(171.476 81.187)"><tspan x="0" y="0">CATEGORY</tspan></text><text class="g" transform="translate(263.798 81.187)"><tspan x="0" y="0">SUBCATEGORY</tspan></text><text class="g" transform="translate(368.086 81.187)"><tspan x="0" y="0">RETAILER</tspan></text><text class="e" transform="translate(204.063 81.412)"><tspan x="0" y="0">SELECT ONE</tspan></text><text class="e" transform="translate(306.252 81.412)"><tspan x="0" y="0">SELECT ONE</tspan></text><text class="e" transform="translate(400.567 81.412)"><tspan x="0" y="0">SELECT ONE</tspan></text><text class="e" transform="translate(104.652 81.412)"><tspan x="0" y="0">SELECT ONE</tspan></text><text class="e" transform="translate(348.36 302.199)"><tspan x="0" y="0">GOTH YTD VS LY BY CUSTOMER</tspan></text><g transform="translate(30.859 103.078)"><g class="aq" transform="matrix(1.07, 0, 0, 1, -114.73, -161.59)"><path class="h" d="M1.694,0H113.518a1.968,1.968,0,0,1,1.694,2.156V51.317a1.968,1.968,0,0,1-1.694,2.156H1.694A1.968,1.968,0,0,1,0,51.317V2.156A1.968,1.968,0,0,1,1.694,0Z" transform="translate(107.58 161.59) scale(0.93 1)"/></g><path class="i" d="M.742,0H49.682c.41,0,.742.965.742,2.156V51.317c0,1.191-.332,2.156-.742,2.156H.742c-.41,0-.742-.965-.742-2.156V2.156C0,.965.332,0,.742,0Z" transform="translate(65.533 0.008)"/><text class="j" transform="translate(6.109 11.551)"><tspan x="0" y="0">YTD</tspan></text><text class="j" transform="translate(75.419 16.023)"><tspan x="0" y="0">Gwth YTD vs LY</tspan></text><text class="k" transform="translate(6.109 34.99)"><tspan x="0" y="0">YTD LY</tspan></text><text class="l" transform="translate(6.109 21.481)"><tspan x="0" y="0">$323,191,999</tspan></text><text class="l" transform="translate(6.109 43.919)"><tspan x="0" y="0">$210,761,932</tspan></text><text class="m" transform="translate(70.432 34.691)"><tspan x="0" y="0">53.3%</tspan></text></g><g transform="translate(150.033 103.078)"><g class="ap" transform="matrix(1.07, 0, 0, 1, -233.9, -161.59)"><path class="n" d="M1.694,0H113.518a1.968,1.968,0,0,1,1.694,2.156V51.317a1.968,1.968,0,0,1-1.694,2.156H1.694A1.968,1.968,0,0,1,0,51.317V2.156A1.968,1.968,0,0,1,1.694,0Z" transform="translate(218.84 161.59) scale(0.93 1)"/></g><path class="o" d="M.742,0H49.682c.41,0,.742.965.742,2.156V51.317c0,1.191-.332,2.156-.742,2.156H.742c-.41,0-.742-.965-.742-2.156V2.156C0,.965.332,0,.742,0Z" transform="translate(65.533 0.008)"/><text class="j" transform="translate(6.109 11.551)"><tspan x="0" y="0">Q1</tspan></text><text class="j" transform="translate(76.934 16.549)"><tspan x="0" y="0">Gwth Q1 vs LY</tspan></text><text class="k" transform="translate(6.109 34.99)"><tspan x="0" y="0">Q1 LY</tspan></text><text class="l" transform="translate(6.109 21.481)"><tspan x="0" y="0">$103,293,068</tspan></text><text class="l" transform="translate(6.109 43.919)"><tspan x="0" y="0">$71,469,498</tspan></text><text class="m" transform="translate(75.937 34.193)"><tspan x="0" y="0">45%</tspan></text></g><g transform="translate(269.207 103.078)"><g class="ao" transform="matrix(1.07, 0, 0, 1, -353.08, -161.59)"><path class="p" d="M1.694,0H113.518a1.968,1.968,0,0,1,1.694,2.156V51.317a1.968,1.968,0,0,1-1.694,2.156H1.694A1.968,1.968,0,0,1,0,51.317V2.156A1.968,1.968,0,0,1,1.694,0Z" transform="translate(330.1 161.59) scale(0.93 1)"/></g><path class="q" d="M.742,0H49.682c.41,0,.742.965.742,2.156V51.317c0,1.191-.332,2.156-.742,2.156H.742c-.41,0-.742-.965-.742-2.156V2.156C0,.965.332,0,.742,0Z" transform="translate(65.533 0.008)"/><text class="k" transform="translate(6.109 12.551)"><tspan x="0" y="0">Q2</tspan></text><text class="j" transform="translate(76.934 16.549)"><tspan x="0" y="0">Gwth Q2 vs LY</tspan></text><text class="k" transform="translate(6.109 34.99)"><tspan x="0" y="0">Q2 LY</tspan></text><text class="l" transform="translate(6.109 21.481)"><tspan x="0" y="0">$98,653,674</tspan></text><text class="l" transform="translate(6.109 43.919)"><tspan x="0" y="0">$58,773,281</tspan></text><text class="r" transform="translate(75.937 34.193)"><tspan x="0" y="0">68%</tspan></text></g><g transform="translate(387.597 102.893)"><g class="an" transform="matrix(1.07, 0, 0, 1, -471.47, -161.4)"><path class="s" d="M1.694,0H113.518a1.968,1.968,0,0,1,1.694,2.156V51.317a1.968,1.968,0,0,1-1.694,2.156H1.694A1.968,1.968,0,0,1,0,51.317V2.156A1.968,1.968,0,0,1,1.694,0Z" transform="translate(440.63 161.41) scale(0.93 1)"/></g><path class="t" d="M.742,0H49.682c.41,0,.742.965.742,2.156V51.317c0,1.191-.332,2.156-.742,2.156H.742c-.41,0-.742-.965-.742-2.156V2.156C0,.965.332,0,.742,0Z" transform="translate(65.533 0.008)"/><text class="k" transform="translate(6.109 12.551)"><tspan x="0" y="0">Q3</tspan></text><text class="j" transform="translate(76.934 16.549)"><tspan x="0" y="0">Gwth Q3 vs LY</tspan></text><text class="k" transform="translate(6.109 34.99)"><tspan x="0" y="0">Q3 LY</tspan></text><text class="l" transform="translate(6.109 21.481)"><tspan x="0" y="0">$100,180,238</tspan></text><text class="l" transform="translate(6.109 43.919)"><tspan x="0" y="0">$62,368,701</tspan></text><text class="r" transform="translate(76.18 34.192)"><tspan x="0" y="0">61%</tspan></text></g><g transform="translate(506.273 103.078)"><g class="am" transform="matrix(1.07, 0, 0, 1, -590.14, -161.59)"><path class="u" d="M1.694,0H113.518a1.968,1.968,0,0,1,1.694,2.156V51.317a1.968,1.968,0,0,1-1.694,2.156H1.694A1.968,1.968,0,0,1,0,51.317V2.156A1.968,1.968,0,0,1,1.694,0Z" transform="translate(551.42 161.59) scale(0.93 1)"/></g><path class="v" d="M.742,0H49.682c.41,0,.742.965.742,2.156V51.317c0,1.191-.332,2.156-.742,2.156H.742c-.41,0-.742-.965-.742-2.156V2.156C0,.965.332,0,.742,0Z" transform="translate(65.533 0.008)"/><text class="k" transform="translate(6.109 12.551)"><tspan x="0" y="0">Q4</tspan></text><text class="j" transform="translate(76.934 16.549)"><tspan x="0" y="0">Gwth Q4 vs LY</tspan></text><text class="k" transform="translate(6.109 34.99)"><tspan x="0" y="0">Q4 LY</tspan></text><text class="l" transform="translate(6.109 21.481)"><tspan x="0" y="0">$98,653,674</tspan></text><text class="l" transform="translate(6.109 43.919)"><tspan x="0" y="0">$58,773,281</tspan></text><text class="r" transform="translate(70.951 34.194)"><tspan x="0" y="0">-65%</tspan></text></g><text class="w" transform="translate(63.635 271.662)"><tspan x="0" y="0">JUL17</tspan></text><text class="w" transform="translate(304.669 271.662)"><tspan x="0" y="0">JUL17</tspan></text><text class="x" transform="translate(102.508 271.665)"><tspan x="0" y="0">JUL18</tspan></text><text class="x" transform="translate(343.542 271.665)"><tspan x="0" y="0">JUL18</tspan></text><text class="w" transform="translate(142.43 271.662)"><tspan x="0" y="0">JUL19</tspan></text><text class="w" transform="translate(383.464 271.662)"><tspan x="0" y="0">JUL19</tspan></text><text class="w" transform="translate(181.233 271.662)"><tspan x="0" y="0">JUL20</tspan></text><text class="w" transform="translate(422.267 271.662)"><tspan x="0" y="0">JUL20</tspan></text><text class="w" transform="translate(222.215 271.662)"><tspan x="0" y="0">JUL21</tspan></text><text class="w" transform="translate(463.25 271.662)"><tspan x="0" y="0">JUL21</tspan></text><text class="w" transform="translate(542.299 271.662)"><tspan x="0" y="0">JUL21</tspan></text><text class="x" transform="translate(261.706 271.665)"><tspan x="0" y="0">JUL22</tspan></text><text class="x" transform="translate(502.74 271.665)"><tspan x="0" y="0">JUL22</tspan></text><text class="x" transform="translate(581.79 271.665)"><tspan x="0" y="0">JUL22</tspan></text><rect class="s" width="12.966" height="46.876" rx="5" transform="translate(53.963 213.833)"/><rect class="t" width="13.963" height="39.895" rx="5" transform="translate(66.444 220.68)"/><rect class="s" width="12.966" height="46.876" rx="5" transform="translate(253.417 213.833)"/><rect class="t" width="13.963" height="39.895" rx="5" transform="translate(265.805 220.68)"/><rect class="s" width="12.966" height="46.876" rx="5" transform="translate(93.854 212.32)"/><rect class="t" width="13.963" height="39.895" rx="5" transform="translate(106.335 219.146)"/><rect class="s" width="12.966" height="46.876" rx="5" transform="translate(293.92 212.32)"/><rect class="t" width="13.963" height="39.895" rx="5" transform="translate(306.195 219.146)"/><rect class="s" width="12.966" height="46.876" rx="5" transform="translate(452.906 212.32)"/><rect class="t" width="13.963" height="39.895" rx="5" transform="translate(465.5 219.146)"/><rect class="s" width="12.966" height="46.876" rx="5" transform="translate(172.638 212.32)"/><rect class="t" width="13.963" height="39.895" rx="5" transform="translate(185.026 219.146)"/><rect class="s" width="12.966" height="46.876" rx="5" transform="translate(372.626 212.32)"/><rect class="t" width="13.963" height="39.895" rx="5" transform="translate(384.979 219.146)"/><rect class="s" width="12.966" height="46.876" rx="5" transform="translate(531.804 212.32)"/><rect class="t" width="13.963" height="39.895" rx="5" transform="translate(544.656 219.345)"/><rect class="s" width="12.966" height="54.735" rx="5" transform="translate(134.243 204.609)"/><rect class="t" width="13.963" height="34.691" rx="5" transform="translate(145.101 224.388)"/><rect class="s" width="12.966" height="54.735" rx="5" transform="translate(333.811 204.609)"/><rect class="t" width="13.963" height="34.691" rx="5" transform="translate(344.463 224.388)"/><rect class="s" width="12.966" height="54.735" rx="5" transform="translate(493.409 204.609)"/><rect class="t" width="13.963" height="34.691" rx="5" transform="translate(504.267 224.587)"/><rect class="s" width="12.966" height="54.735" rx="5" transform="translate(213.028 204.609)"/><rect class="t" width="13.963" height="34.691" rx="5" transform="translate(225.529 224.37)"/><rect class="s" width="12.966" height="54.735" rx="5" transform="translate(412.516 204.609)"/><rect class="t" width="13.963" height="34.691" rx="5" transform="translate(425.223 224.37)"/><rect class="s" width="12.966" height="54.735" rx="5" transform="translate(572.193 204.609)"/><rect class="t" width="13.963" height="34.691" rx="5" transform="translate(585.159 224.569)"/><rect class="y" width="277.055" height="6.982" transform="translate(40.868 392.343)"/><rect class="y" width="247.369" height="6.981" transform="translate(356.327 392.705)"/><rect class="q" width="277.299" height="6.982" transform="translate(40.876 392.339)"/><rect class="n" width="208.888" height="6.981" transform="translate(356.421 392.705)"/><rect class="y" width="277.055" height="5.984" transform="translate(40.868 383.365)"/><rect class="y" width="247.487" height="6.981" transform="translate(356.327 383.939)"/><rect class="q" width="127.558" height="5.984" transform="translate(40.876 383.361)"/><rect class="n" width="148.803" height="6.981" transform="translate(356.421 384.064)"/><rect class="y" width="277.055" height="6.982" transform="translate(40.868 374.389)"/><rect class="y" width="247.487" height="6.982" transform="translate(356.327 375.626)"/><rect class="q" width="162.682" height="6.982" transform="translate(40.876 374.386)"/><rect class="n" width="162.682" height="6.982" transform="translate(356.421 375.298)"/><rect class="y" width="277.055" height="6.982" transform="translate(40.868 365.414)"/><rect class="y" width="247.487" height="6.982" transform="translate(356.327 367.05)"/><rect class="q" width="259.214" height="6.981" transform="translate(40.948 365.413)"/><rect class="n" width="223.018" height="6.981" transform="translate(356.421 366.559)"/><rect class="y" width="277.055" height="7.979" transform="translate(40.868 356.438)"/><rect class="y" width="247.473" height="6.981" transform="translate(356.39 357.608)"/><rect class="q" width="277.299" height="7.979" transform="translate(40.948 356.437)"/><rect class="n" width="238.577" height="6.981" transform="translate(356.421 357.19)"/><rect class="y" width="277.055" height="6.982" transform="translate(40.868 348.459)"/><rect class="y" width="247.487" height="6.982" transform="translate(356.327 348.793)"/><rect class="q" width="267.059" height="6.982" transform="translate(41.055 348.459)"/><rect class="n" width="229.767" height="6.982" transform="translate(356.421 348.611)"/><rect class="y" width="277.055" height="5.984" transform="translate(40.868 340.48)"/><rect class="y" width="247.487" height="6.981" transform="translate(356.209 340.214)"/><rect class="q" width="208.71" height="5.984" transform="translate(41.055 340.484)"/><rect class="n" width="208.71" height="6.981" transform="translate(356.421 339.641)"/><rect class="y" width="277.055" height="5.984" transform="translate(40.868 331.504)"/><rect class="y" width="247.487" height="6.981" transform="translate(356.327 331.77)"/><rect class="q" width="246.687" height="5.984" transform="translate(41.657 332.011)"/><rect class="n" width="211.532" height="6.981" transform="translate(356.421 331.33)"/><rect class="y" width="277.055" height="6.982" transform="translate(40.736 322.527)"/><rect class="y" width="247.487" height="6.982" transform="translate(356.149 322.827)"/><rect class="y" width="3.989" height="76.796" rx="1.995" transform="translate(323.729 322.527)"/><rect class="y" width="3.989" height="76.796" rx="1.995" transform="translate(610.329 322.527)"/><rect class="q" width="246.687" height="6.981" transform="translate(41.657 323.035)"/><rect class="n" width="211.532" height="6.981" transform="translate(356.421 322.811)"/><line class="c" y2="75.898" transform="translate(40.85 322.81)"/><line class="c" y2="75.898" transform="translate(356.371 322.81)"/><line class="c" y2="75.898" transform="translate(148.555 322.81)"/><line class="c" y2="75.898" transform="translate(464.076 322.81)"/><line class="c" x1="0.431" y2="75.898" transform="translate(93.892 322.81)"/><line class="c" x1="0.431" y2="75.898" transform="translate(409.413 322.81)"/><line class="c" x1="0.431" y2="75.898" transform="translate(201.598 322.81)"/><line class="c" x1="0.431" y2="75.898" transform="translate(517.119 322.81)"/><line class="c" x1="0.431" y2="75.898" transform="translate(255.502 322.81)"/><line class="c" x1="0.431" y2="75.898" transform="translate(571.023 322.81)"/><line class="c" x1="0.431" y2="75.898" transform="translate(308.976 322.81)"/><rect class="z" width="3.989" height="11.968" rx="1.995" transform="translate(323.729 322.527)"/><rect class="z" width="3.989" height="11.968" rx="1.995" transform="translate(610.329 322.527)"/><text class="e" transform="translate(35.163 300.604)"><tspan x="0" y="0">YTD MEN BY CUSTOMER</tspan></text><line class="aa" y1="0.431" x2="53.042" transform="translate(103.918 86.451)"/><line class="aa" y1="0.431" x2="53.042" transform="translate(200.634 85.953)"/><line class="aa" y1="0.431" x2="53.042" transform="translate(302.43 85.953)"/><line class="aa" y1="0.431" x2="53.042" transform="translate(396.745 85.953)"/><path d="M3.122,2.851a.558.558,0,0,0-.132-.309L.99.208A.556.556,0,1,0,.146.931L1.837,2.9.146,4.876A.556.556,0,1,0,.99,5.6l2-2.334a.556.556,0,0,0,.132-.413Z" transform="translate(250.642 77.382) rotate(90)"/><path d="M3.122,2.851a.558.558,0,0,0-.132-.309L.99.208A.556.556,0,1,0,.146.931L1.837,2.9.146,4.876A.556.556,0,1,0,.99,5.6l2-2.334a.556.556,0,0,0,.132-.413Z" transform="translate(352.438 77.382) rotate(90)"/><path d="M3.122,2.851a.558.558,0,0,0-.132-.309L.99.208A.556.556,0,1,0,.146.931L1.837,2.9.146,4.876A.556.556,0,1,0,.99,5.6l2-2.334a.556.556,0,0,0,.132-.413Z" transform="translate(446.753 77.382) rotate(90)"/><path d="M3.122,2.851a.558.558,0,0,0-.132-.309L.99.208A.556.556,0,1,0,.146.931L1.837,2.9.146,4.876A.556.556,0,1,0,.99,5.6l2-2.334a.556.556,0,0,0,.132-.413Z" transform="translate(151.232 77.382) rotate(90)"/></g><g transform="translate(-0.596 80.479)"><g class="al" transform="matrix(1.07, 0, 0, 1, 47.39, -139.37)"><rect class="a" width="637.308" height="427.864" transform="translate(-43.69 139.75) scale(0.93 1)"/></g><g class="ak" transform="matrix(1.07, 0, 0, 1, 47.39, -139.37)"><g class="b" transform="translate(-15.56 322.68) scale(0.93 1)"><path class="ab" d="M8.682,0h573c4.795,0,8.682,1.813,8.682,4.048v92.3c0,2.236-3.887,4.048-8.682,4.048h-573C3.887,100.4,0,98.589,0,96.353V4.048C0,1.813,3.887,0,8.682,0Z"/><path class="ac" d="M 8.68182373046875 1.000038146972656 C 6.5057373046875 1.000038146972656 4.47564697265625 1.38787841796875 2.9654541015625 2.092109680175781 C 1.7347412109375 2.666038513183594 1 3.397346496582031 1 4.048500061035156 L 1 96.35326385498047 C 1 97.00441741943359 1.7347412109375 97.73572540283203 2.9654541015625 98.30965423583984 C 4.47564697265625 99.01388549804688 6.5057373046875 99.40172576904297 8.68182373046875 99.40172576904297 L 581.6828002929688 99.40172576904297 C 583.85888671875 99.40172576904297 585.8889770507812 99.01388549804688 587.3991088867188 98.30965423583984 C 588.6298217773438 97.73580169677734 589.3645629882812 97.00441741943359 589.3645629882812 96.35326385498047 L 589.3645629882812 4.048500061035156 C 589.3645629882812 3.397346496582031 588.6298217773438 2.665962219238281 587.3991088867188 2.092109680175781 C 585.8889770507812 1.38787841796875 583.85888671875 1.000038146972656 581.6828002929688 1.000038146972656 L 8.68182373046875 1.000038146972656 M 8.68182373046875 3.814697265625e-05 L 581.6828002929688 3.814697265625e-05 C 586.4776611328125 3.814697265625e-05 590.3645629882812 1.812576293945312 590.3645629882812 4.048500061035156 L 590.3645629882812 96.35326385498047 C 590.3645629882812 98.58918762207031 586.4776611328125 100.401725769043 581.6828002929688 100.401725769043 L 8.68182373046875 100.401725769043 C 3.886962890625 100.401725769043 0 98.58918762207031 0 96.35326385498047 L 0 4.048500061035156 C 0 1.812576293945312 3.886962890625 3.814697265625e-05 8.68182373046875 3.814697265625e-05 Z"/></g></g><g class="aj" transform="matrix(1.07, 0, 0, 1, 47.39, -139.37)"><g class="b" transform="translate(-16.45 449.6) scale(0.93 1)"><path class="ab" d="M4.539,0H304.122a4.315,4.315,0,0,1,4.539,4.048v92.3a4.315,4.315,0,0,1-4.539,4.048H4.539A4.315,4.315,0,0,1,0,96.353V4.048A4.315,4.315,0,0,1,4.539,0Z"/><path class="ac" d="M 4.53912353515625 1 C 2.587646484375 1 1 2.367538452148438 1 4.0484619140625 L 1 96.35330200195312 C 1 98.03422546386719 2.587646484375 99.40176391601562 4.53912353515625 99.40176391601562 L 304.1218566894531 99.40176391601562 C 306.0733642578125 99.40176391601562 307.6610107421875 98.03422546386719 307.6610107421875 96.35330200195312 L 307.6610107421875 4.0484619140625 C 307.6610107421875 2.367538452148438 306.0733642578125 1 304.1218566894531 1 L 4.53912353515625 1 M 4.53912353515625 0 L 304.1218566894531 0 C 306.6287231445312 0 308.6610107421875 1.812538146972656 308.6610107421875 4.0484619140625 L 308.6610107421875 96.35330200195312 C 308.6610107421875 98.58918762207031 306.6287231445312 100.4017639160156 304.1218566894531 100.4017639160156 L 4.53912353515625 100.4017639160156 C 2.0322265625 100.4017639160156 0 98.58918762207031 0 96.35330200195312 L 0 4.0484619140625 C 0 1.812538146972656 2.0322265625 0 4.53912353515625 0 Z"/></g></g><g class="ai" transform="matrix(1.07, 0, 0, 1, 47.39, -139.37)"><g class="b" transform="translate(282.06 449.6) scale(0.93 1)"><path class="ab" d="M4.011,0h264.7a4.03,4.03,0,0,1,4.011,4.048v92.3a4.03,4.03,0,0,1-4.011,4.048H4.011A4.03,4.03,0,0,1,0,96.353V4.048A4.03,4.03,0,0,1,4.011,0Z"/><path class="ac" d="M 4.010650634765625 0.9999923706054688 C 2.3505859375 0.9999923706054688 1 2.367523193359375 1 4.048454284667969 L 1 96.353271484375 C 1 98.03424072265625 2.3505859375 99.40177154541016 4.010650634765625 99.40177154541016 L 268.7136840820312 99.40177154541016 C 270.373779296875 99.40177154541016 271.724365234375 98.03424072265625 271.724365234375 96.353271484375 L 271.724365234375 4.048454284667969 C 271.724365234375 2.367523193359375 270.373779296875 0.9999923706054688 268.7136840820312 0.9999923706054688 L 4.010650634765625 0.9999923706054688 M 4.010650634765625 -7.62939453125e-06 L 268.7136840820312 -7.62939453125e-06 C 270.9287109375 -7.62939453125e-06 272.724365234375 1.81256103515625 272.724365234375 4.048454284667969 L 272.724365234375 96.353271484375 C 272.724365234375 98.58920288085938 270.9287109375 100.4017715454102 268.7136840820312 100.4017715454102 L 4.010650634765625 100.4017715454102 C 1.795623779296875 100.4017715454102 0 98.58920288085938 0 96.353271484375 L 0 4.048454284667969 C 0 1.81256103515625 1.795623779296875 -7.62939453125e-06 4.010650634765625 -7.62939453125e-06 Z"/></g></g><g transform="translate(44.745 207.632)"><line class="c" x2="560.413"/><line class="c" x2="560.413" transform="translate(0 25.874)"/><line class="c" x2="560.413" transform="translate(0 51.749)"/></g><rect class="d" width="637.308" height="34.907" transform="translate(0.596 0.383)"/><text class="e" transform="translate(32.511 171.947)"><tspan x="0" y="0">CONNECTED CONSUMERS PER DAY</tspan></text><text class="e" transform="translate(34.506 81.187)"><tspan x="0" y="0">FILTRAR POR : </tspan><tspan class="f" y="0">CUSTOMER</tspan><tspan y="0"> </tspan></text><text class="g" transform="translate(171.476 81.187)"><tspan x="0" y="0">CATEGORY</tspan></text><text class="g" transform="translate(263.798 81.187)"><tspan x="0" y="0">SUBCATEGORY</tspan></text><text class="g" transform="translate(368.086 81.187)"><tspan x="0" y="0">RETAILER</tspan></text><text class="e" transform="translate(204.063 81.412)"><tspan x="0" y="0">SELECT ONE</tspan></text><text class="e" transform="translate(306.252 81.412)"><tspan x="0" y="0">SELECT ONE</tspan></text><text class="e" transform="translate(400.567 81.412)"><tspan x="0" y="0">SELECT ONE</tspan></text><text class="e" transform="translate(104.652 81.412)"><tspan x="0" y="0">SELECT ONE</tspan></text><text class="e" transform="translate(348.36 302.199)"><tspan x="0" y="0">GOTH YTD VS LY BY CUSTOMER</tspan></text><g transform="translate(30.859 103.078)"><g class="ah" transform="matrix(1.07, 0, 0, 1, 16.53, -242.45)"><path class="h" d="M1.694,0H113.518a1.968,1.968,0,0,1,1.694,2.156V51.317a1.968,1.968,0,0,1-1.694,2.156H1.694A1.968,1.968,0,0,1,0,51.317V2.156A1.968,1.968,0,0,1,1.694,0Z" transform="translate(-14.96 242.46) scale(0.93 1)"/></g><path class="i" d="M.742,0H49.682c.41,0,.742.965.742,2.156V51.317c0,1.191-.332,2.156-.742,2.156H.742c-.41,0-.742-.965-.742-2.156V2.156C0,.965.332,0,.742,0Z" transform="translate(65.533 0.008)"/><text class="j" transform="translate(6.109 11.551)"><tspan x="0" y="0">YTD</tspan></text><text class="j" transform="translate(75.419 16.023)"><tspan x="0" y="0">Gwth YTD vs LY</tspan></text><text class="k" transform="translate(6.109 34.99)"><tspan x="0" y="0">YTD LY</tspan></text><text class="l" transform="translate(6.109 21.481)"><tspan x="0" y="0">$323,191,999</tspan></text><text class="l" transform="translate(6.109 43.919)"><tspan x="0" y="0">$210,761,932</tspan></text><text class="m" transform="translate(70.432 34.691)"><tspan x="0" y="0">53.3%</tspan></text></g><g transform="translate(150.033 103.078)"><g class="ag" transform="matrix(1.07, 0, 0, 1, -102.64, -242.45)"><path class="n" d="M1.694,0H113.518a1.968,1.968,0,0,1,1.694,2.156V51.317a1.968,1.968,0,0,1-1.694,2.156H1.694A1.968,1.968,0,0,1,0,51.317V2.156A1.968,1.968,0,0,1,1.694,0Z" transform="translate(96.3 242.46) scale(0.93 1)"/></g><path class="o" d="M.742,0H49.682c.41,0,.742.965.742,2.156V51.317c0,1.191-.332,2.156-.742,2.156H.742c-.41,0-.742-.965-.742-2.156V2.156C0,.965.332,0,.742,0Z" transform="translate(65.533 0.008)"/><text class="j" transform="translate(6.109 11.551)"><tspan x="0" y="0">Q1</tspan></text><text class="j" transform="translate(76.934 16.549)"><tspan x="0" y="0">Gwth Q1 vs LY</tspan></text><text class="k" transform="translate(6.109 34.99)"><tspan x="0" y="0">Q1 LY</tspan></text><text class="l" transform="translate(6.109 21.481)"><tspan x="0" y="0">$103,293,068</tspan></text><text class="l" transform="translate(6.109 43.919)"><tspan x="0" y="0">$71,469,498</tspan></text><text class="m" transform="translate(75.937 34.193)"><tspan x="0" y="0">45%</tspan></text></g><g transform="translate(269.207 103.078)"><g class="af" transform="matrix(1.07, 0, 0, 1, -221.81, -242.45)"><path class="p" d="M1.694,0H113.518a1.968,1.968,0,0,1,1.694,2.156V51.317a1.968,1.968,0,0,1-1.694,2.156H1.694A1.968,1.968,0,0,1,0,51.317V2.156A1.968,1.968,0,0,1,1.694,0Z" transform="translate(207.56 242.46) scale(0.93 1)"/></g><path class="q" d="M.742,0H49.682c.41,0,.742.965.742,2.156V51.317c0,1.191-.332,2.156-.742,2.156H.742c-.41,0-.742-.965-.742-2.156V2.156C0,.965.332,0,.742,0Z" transform="translate(65.533 0.008)"/><text class="k" transform="translate(6.109 12.551)"><tspan x="0" y="0">Q2</tspan></text><text class="j" transform="translate(76.934 16.549)"><tspan x="0" y="0">Gwth Q2 vs LY</tspan></text><text class="k" transform="translate(6.109 34.99)"><tspan x="0" y="0">Q2 LY</tspan></text><text class="l" transform="translate(6.109 21.481)"><tspan x="0" y="0">$98,653,674</tspan></text><text class="l" transform="translate(6.109 43.919)"><tspan x="0" y="0">$58,773,281</tspan></text><text class="r" transform="translate(75.937 34.193)"><tspan x="0" y="0">68%</tspan></text></g><g transform="translate(387.597 102.893)"><g class="ae" transform="matrix(1.07, 0, 0, 1, -340.2, -242.26)"><path class="s" d="M1.694,0H113.518a1.968,1.968,0,0,1,1.694,2.156V51.317a1.968,1.968,0,0,1-1.694,2.156H1.694A1.968,1.968,0,0,1,0,51.317V2.156A1.968,1.968,0,0,1,1.694,0Z" transform="translate(318.08 242.27) scale(0.93 1)"/></g><path class="t" d="M.742,0H49.682c.41,0,.742.965.742,2.156V51.317c0,1.191-.332,2.156-.742,2.156H.742c-.41,0-.742-.965-.742-2.156V2.156C0,.965.332,0,.742,0Z" transform="translate(65.533 0.008)"/><text class="k" transform="translate(6.109 12.551)"><tspan x="0" y="0">Q3</tspan></text><text class="j" transform="translate(76.934 16.549)"><tspan x="0" y="0">Gwth Q3 vs LY</tspan></text><text class="k" transform="translate(6.109 34.99)"><tspan x="0" y="0">Q3 LY</tspan></text><text class="l" transform="translate(6.109 21.481)"><tspan x="0" y="0">$100,180,238</tspan></text><text class="l" transform="translate(6.109 43.919)"><tspan x="0" y="0">$62,368,701</tspan></text><text class="r" transform="translate(76.18 34.192)"><tspan x="0" y="0">61%</tspan></text></g><g transform="translate(506.273 103.078)"><g class="ad" transform="matrix(1.07, 0, 0, 1, -458.88, -242.45)"><path class="u" d="M1.694,0H113.518a1.968,1.968,0,0,1,1.694,2.156V51.317a1.968,1.968,0,0,1-1.694,2.156H1.694A1.968,1.968,0,0,1,0,51.317V2.156A1.968,1.968,0,0,1,1.694,0Z" transform="translate(428.88 242.46) scale(0.93 1)"/></g><path class="v" d="M.742,0H49.682c.41,0,.742.965.742,2.156V51.317c0,1.191-.332,2.156-.742,2.156H.742c-.41,0-.742-.965-.742-2.156V2.156C0,.965.332,0,.742,0Z" transform="translate(65.533 0.008)"/><text class="k" transform="translate(6.109 12.551)"><tspan x="0" y="0">Q4</tspan></text><text class="j" transform="translate(76.934 16.549)"><tspan x="0" y="0">Gwth Q4 vs LY</tspan></text><text class="k" transform="translate(6.109 34.99)"><tspan x="0" y="0">Q4 LY</tspan></text><text class="l" transform="translate(6.109 21.481)"><tspan x="0" y="0">$98,653,674</tspan></text><text class="l" transform="translate(6.109 43.919)"><tspan x="0" y="0">$58,773,281</tspan></text><text class="r" transform="translate(70.951 34.194)"><tspan x="0" y="0">-65%</tspan></text></g><text class="w" transform="translate(63.635 271.662)"><tspan x="0" y="0">JUL17</tspan></text><text class="w" transform="translate(304.669 271.662)"><tspan x="0" y="0">JUL17</tspan></text><text class="x" transform="translate(102.508 271.665)"><tspan x="0" y="0">JUL18</tspan></text><text class="x" transform="translate(343.542 271.665)"><tspan x="0" y="0">JUL18</tspan></text><text class="w" transform="translate(142.43 271.662)"><tspan x="0" y="0">JUL19</tspan></text><text class="w" transform="translate(383.464 271.662)"><tspan x="0" y="0">JUL19</tspan></text><text class="w" transform="translate(181.233 271.662)"><tspan x="0" y="0">JUL20</tspan></text><text class="w" transform="translate(422.267 271.662)"><tspan x="0" y="0">JUL20</tspan></text><text class="w" transform="translate(222.215 271.662)"><tspan x="0" y="0">JUL21</tspan></text><text class="w" transform="translate(463.25 271.662)"><tspan x="0" y="0">JUL21</tspan></text><text class="w" transform="translate(542.299 271.662)"><tspan x="0" y="0">JUL21</tspan></text><text class="x" transform="translate(261.706 271.665)"><tspan x="0" y="0">JUL22</tspan></text><text class="x" transform="translate(502.74 271.665)"><tspan x="0" y="0">JUL22</tspan></text><text class="x" transform="translate(581.79 271.665)"><tspan x="0" y="0">JUL22</tspan></text><rect class="s" width="12.966" height="46.876" rx="5" transform="translate(53.963 213.833)"/><rect class="t" width="13.963" height="39.895" rx="5" transform="translate(66.444 220.68)"/><rect class="s" width="12.966" height="46.876" rx="5" transform="translate(253.417 213.833)"/><rect class="t" width="13.963" height="39.895" rx="5" transform="translate(265.805 220.68)"/><rect class="s" width="12.966" height="46.876" rx="5" transform="translate(93.854 212.32)"/><rect class="t" width="13.963" height="39.895" rx="5" transform="translate(106.335 219.146)"/><rect class="s" width="12.966" height="46.876" rx="5" transform="translate(293.92 212.32)"/><rect class="t" width="13.963" height="39.895" rx="5" transform="translate(306.195 219.146)"/><rect class="s" width="12.966" height="46.876" rx="5" transform="translate(452.906 212.32)"/><rect class="t" width="13.963" height="39.895" rx="5" transform="translate(465.5 219.146)"/><rect class="s" width="12.966" height="46.876" rx="5" transform="translate(172.638 212.32)"/><rect class="t" width="13.963" height="39.895" rx="5" transform="translate(185.026 219.146)"/><rect class="s" width="12.966" height="46.876" rx="5" transform="translate(372.626 212.32)"/><rect class="t" width="13.963" height="39.895" rx="5" transform="translate(384.979 219.146)"/><rect class="s" width="12.966" height="46.876" rx="5" transform="translate(531.804 212.32)"/><rect class="t" width="13.963" height="39.895" rx="5" transform="translate(544.656 219.345)"/><rect class="s" width="12.966" height="54.735" rx="5" transform="translate(134.243 204.609)"/><rect class="t" width="13.963" height="34.691" rx="5" transform="translate(145.101 224.388)"/><rect class="s" width="12.966" height="54.735" rx="5" transform="translate(333.811 204.609)"/><rect class="t" width="13.963" height="34.691" rx="5" transform="translate(344.463 224.388)"/><rect class="s" width="12.966" height="54.735" rx="5" transform="translate(493.409 204.609)"/><rect class="t" width="13.963" height="34.691" rx="5" transform="translate(504.267 224.587)"/><rect class="s" width="12.966" height="54.735" rx="5" transform="translate(213.028 204.609)"/><rect class="t" width="13.963" height="34.691" rx="5" transform="translate(225.529 224.37)"/><rect class="s" width="12.966" height="54.735" rx="5" transform="translate(412.516 204.609)"/><rect class="t" width="13.963" height="34.691" rx="5" transform="translate(425.223 224.37)"/><rect class="s" width="12.966" height="54.735" rx="5" transform="translate(572.193 204.609)"/><rect class="t" width="13.963" height="34.691" rx="5" transform="translate(585.159 224.569)"/><rect class="y" width="277.055" height="6.982" transform="translate(40.868 392.343)"/><rect class="y" width="247.369" height="6.981" transform="translate(356.327 392.705)"/><rect class="q" width="277.299" height="6.982" transform="translate(40.876 392.339)"/><rect class="n" width="208.888" height="6.981" transform="translate(356.421 392.705)"/><rect class="y" width="277.055" height="5.984" transform="translate(40.868 383.365)"/><rect class="y" width="247.487" height="6.981" transform="translate(356.327 383.939)"/><rect class="q" width="127.558" height="5.984" transform="translate(40.876 383.361)"/><rect class="n" width="148.803" height="6.981" transform="translate(356.421 384.064)"/><rect class="y" width="277.055" height="6.982" transform="translate(40.868 374.389)"/><rect class="y" width="247.487" height="6.982" transform="translate(356.327 375.626)"/><rect class="q" width="162.682" height="6.982" transform="translate(40.876 374.386)"/><rect class="n" width="162.682" height="6.982" transform="translate(356.421 375.298)"/><rect class="y" width="277.055" height="6.982" transform="translate(40.868 365.414)"/><rect class="y" width="247.487" height="6.982" transform="translate(356.327 367.05)"/><rect class="q" width="259.214" height="6.981" transform="translate(40.948 365.413)"/><rect class="n" width="223.018" height="6.981" transform="translate(356.421 366.559)"/><rect class="y" width="277.055" height="7.979" transform="translate(40.868 356.438)"/><rect class="y" width="247.473" height="6.981" transform="translate(356.39 357.608)"/><rect class="q" width="277.299" height="7.979" transform="translate(40.948 356.437)"/><rect class="n" width="238.577" height="6.981" transform="translate(356.421 357.19)"/><rect class="y" width="277.055" height="6.982" transform="translate(40.868 348.459)"/><rect class="y" width="247.487" height="6.982" transform="translate(356.327 348.793)"/><rect class="q" width="267.059" height="6.982" transform="translate(41.055 348.459)"/><rect class="n" width="229.767" height="6.982" transform="translate(356.421 348.611)"/><rect class="y" width="277.055" height="5.984" transform="translate(40.868 340.48)"/><rect class="y" width="247.487" height="6.981" transform="translate(356.209 340.214)"/><rect class="q" width="208.71" height="5.984" transform="translate(41.055 340.484)"/><rect class="n" width="208.71" height="6.981" transform="translate(356.421 339.641)"/><rect class="y" width="277.055" height="5.984" transform="translate(40.868 331.504)"/><rect class="y" width="247.487" height="6.981" transform="translate(356.327 331.77)"/><rect class="q" width="246.687" height="5.984" transform="translate(41.657 332.011)"/><rect class="n" width="211.532" height="6.981" transform="translate(356.421 331.33)"/><rect class="y" width="277.055" height="6.982" transform="translate(40.736 322.527)"/><rect class="y" width="247.487" height="6.982" transform="translate(356.149 322.827)"/><rect class="y" width="3.989" height="76.796" rx="1.995" transform="translate(323.729 322.527)"/><rect class="y" width="3.989" height="76.796" rx="1.995" transform="translate(610.329 322.527)"/><rect class="q" width="246.687" height="6.981" transform="translate(41.657 323.035)"/><rect class="n" width="211.532" height="6.981" transform="translate(356.421 322.811)"/><line class="c" y2="75.898" transform="translate(40.85 322.81)"/><line class="c" y2="75.898" transform="translate(356.371 322.81)"/><line class="c" y2="75.898" transform="translate(148.555 322.81)"/><line class="c" y2="75.898" transform="translate(464.076 322.81)"/><line class="c" x1="0.431" y2="75.898" transform="translate(93.892 322.81)"/><line class="c" x1="0.431" y2="75.898" transform="translate(409.413 322.81)"/><line class="c" x1="0.431" y2="75.898" transform="translate(201.598 322.81)"/><line class="c" x1="0.431" y2="75.898" transform="translate(517.119 322.81)"/><line class="c" x1="0.431" y2="75.898" transform="translate(255.502 322.81)"/><line class="c" x1="0.431" y2="75.898" transform="translate(571.023 322.81)"/><line class="c" x1="0.431" y2="75.898" transform="translate(308.976 322.81)"/><rect class="z" width="3.989" height="11.968" rx="1.995" transform="translate(323.729 322.527)"/><rect class="z" width="3.989" height="11.968" rx="1.995" transform="translate(610.329 322.527)"/><text class="e" transform="translate(35.163 300.604)"><tspan x="0" y="0">YTD MEN BY CUSTOMER</tspan></text><line class="aa" y1="0.431" x2="53.042" transform="translate(103.918 86.451)"/><line class="aa" y1="0.431" x2="53.042" transform="translate(200.634 85.953)"/><line class="aa" y1="0.431" x2="53.042" transform="translate(302.43 85.953)"/><line class="aa" y1="0.431" x2="53.042" transform="translate(396.745 85.953)"/><path d="M3.122,2.851a.558.558,0,0,0-.132-.309L.99.208A.556.556,0,1,0,.146.931L1.837,2.9.146,4.876A.556.556,0,1,0,.99,5.6l2-2.334a.556.556,0,0,0,.132-.413Z" transform="translate(250.642 77.382) rotate(90)"/><path d="M3.122,2.851a.558.558,0,0,0-.132-.309L.99.208A.556.556,0,1,0,.146.931L1.837,2.9.146,4.876A.556.556,0,1,0,.99,5.6l2-2.334a.556.556,0,0,0,.132-.413Z" transform="translate(352.438 77.382) rotate(90)"/><path d="M3.122,2.851a.558.558,0,0,0-.132-.309L.99.208A.556.556,0,1,0,.146.931L1.837,2.9.146,4.876A.556.556,0,1,0,.99,5.6l2-2.334a.556.556,0,0,0,.132-.413Z" transform="translate(446.753 77.382) rotate(90)"/><path d="M3.122,2.851a.558.558,0,0,0-.132-.309L.99.208A.556.556,0,1,0,.146.931L1.837,2.9.146,4.876A.556.556,0,1,0,.99,5.6l2-2.334a.556.556,0,0,0,.132-.413Z" transform="translate(151.232 77.382) rotate(90)"/></g></g></svg>