<svg xmlns="http://www.w3.org/2000/svg" width="77.001" height="77" viewBox="0 0 77.001 77"><g transform="translate(-3.123 -3.125)"><path d="M88.333,78.624H85.044l1.835-3.215-2.227-1.274-2.563,4.488H78.81a6.393,6.393,0,0,0-5.874-3.85H71.653V73.732a7.7,7.7,0,1,0-7.7,0l0,1.043H62.666a6.423,6.423,0,0,0-6.417,6.417v5.133a1.283,1.283,0,0,0,1.283,1.283H73.8l.468,1.636a1.278,1.278,0,0,0,1.232.93H85.766A1.285,1.285,0,0,0,87,89.244l2.567-8.984a1.282,1.282,0,0,0-1.235-1.636ZM62.769,68.075c.074,0,.144.013.218.013A8.037,8.037,0,0,0,67.8,66.481a8.037,8.037,0,0,0,4.812,1.607c.074,0,.148-.013.218-.013a5.128,5.128,0,0,1-10.061,0ZM67.8,61.941a5.126,5.126,0,0,1,4.867,3.577c-.019,0-.035,0-.055,0a5.453,5.453,0,0,1-3.892-1.636,1.317,1.317,0,0,0-1.842,0,5.44,5.44,0,0,1-3.892,1.636c-.019,0-.035,0-.055,0A5.126,5.126,0,0,1,67.8,61.941Zm0,12.833a7.7,7.7,0,0,0,1.283-.116v2.15L67.8,78.092l-1.283-1.283v-2.15A7.7,7.7,0,0,0,67.8,74.774ZM58.816,85.041v-3.85a3.853,3.853,0,0,1,3.85-3.85h.751l3.475,3.475a1.286,1.286,0,0,0,1.816,0l3.475-3.475h.751A3.831,3.831,0,0,1,75.8,78.624H72.932A1.282,1.282,0,0,0,71.7,80.26l1.367,4.78ZM84.8,87.607H76.464l-1.832-6.417h5.987l-1.1,1.931L81.742,84.4l1.835-3.205h3.054Z" transform="translate(-9.492 -10.05)"/><path d="M30.075,74.775H28.792V73.732a7.7,7.7,0,1,0-7.7,0v1.043H19.808a6.393,6.393,0,0,0-5.874,3.85H10.652L8.088,74.14,5.862,75.413,7.7,78.625H4.409a1.282,1.282,0,0,0-1.235,1.636L5.74,89.245a1.285,1.285,0,0,0,1.235.93H17.242a1.285,1.285,0,0,0,1.235-.93l.465-1.636H35.209a1.283,1.283,0,0,0,1.283-1.283V81.192a6.423,6.423,0,0,0-6.417-6.417Zm-10.164-6.7c.074,0,.144.013.218.013a8.037,8.037,0,0,0,4.812-1.607,8.037,8.037,0,0,0,4.812,1.607c.074,0,.148-.013.218-.013a5.128,5.128,0,0,1-10.061,0Zm5.031-6.134a5.126,5.126,0,0,1,4.867,3.577c-.019,0-.035,0-.055,0a5.453,5.453,0,0,1-3.892-1.636,1.317,1.317,0,0,0-1.842,0,5.44,5.44,0,0,1-3.892,1.636c-.019,0-.035,0-.055,0a5.126,5.126,0,0,1,4.867-3.577Zm0,12.833a7.7,7.7,0,0,0,1.283-.115v2.15l-1.283,1.283-1.283-1.283v-2.15A7.7,7.7,0,0,0,24.942,74.775ZM16.273,87.608H7.943L6.111,81.192H9.166l1.829,3.2,2.227-1.274-1.1-1.928h5.987Zm17.652-2.567H19.676l1.367-4.78a1.282,1.282,0,0,0-1.235-1.636H16.943a3.837,3.837,0,0,1,2.865-1.283h.751l3.475,3.475a1.286,1.286,0,0,0,1.816,0l3.475-3.475h.751a3.853,3.853,0,0,1,3.85,3.85Z" transform="translate(0 -10.05)"/><path d="M32.254,33.925H60.487a1.283,1.283,0,0,0,1.283-1.283V16.75a5.084,5.084,0,0,0,1.283-3.359,1.168,1.168,0,0,0-.013-.183l-.969-6.779a3.868,3.868,0,0,0-3.811-3.3H34.48a3.87,3.87,0,0,0-3.811,3.3L29.7,13.208a1.169,1.169,0,0,0-.013.183A5.084,5.084,0,0,0,30.97,16.75V32.641a1.283,1.283,0,0,0,1.283,1.283ZM38.67,16.751a5.064,5.064,0,0,0,7.7,0,5.064,5.064,0,0,0,7.7,0,5.1,5.1,0,0,0,3.85,1.774,5,5,0,0,0,1.283-.183v5.316H33.537V18.342a5,5,0,0,0,1.283.183A5.1,5.1,0,0,0,38.67,16.751ZM33.537,31.358V26.225H59.2v5.133ZM59.53,6.792l.956,6.68a2.567,2.567,0,0,1-5.133-.08v-7.7H58.26a1.29,1.29,0,0,1,1.271,1.1Zm-6.744,6.6a2.567,2.567,0,1,1-5.133,0v-7.7h5.133Zm-7.7,0a2.567,2.567,0,1,1-5.133,0v-7.7h5.133Zm-11.877-6.6a1.29,1.29,0,0,1,1.271-1.1h2.907v7.7a2.567,2.567,0,0,1-5.133.083Z" transform="translate(-4.746)"/><path d="M93.75,39.062h2.567v2.567H93.75Z" transform="translate(-16.192 -6.421)"/><path d="M93.75,32.812h2.567v2.567H93.75Z" transform="translate(-16.192 -5.304)"/><path d="M93.75,51.562h2.567v2.567H93.75Z" transform="translate(-16.192 -8.654)"/><path d="M93.75,45.312h2.567v2.567H93.75Z" transform="translate(-16.192 -7.538)"/><path d="M93.75,64.062h2.567v2.567H93.75Z" transform="translate(-16.192 -10.888)"/><path d="M93.75,57.812h2.567v2.567H93.75Z" transform="translate(-16.192 -9.771)"/><path d="M81.25,26.562h2.567v2.567H81.25Z" transform="translate(-13.959 -4.188)"/><path d="M87.5,26.562h2.567v2.567H87.5Z" transform="translate(-15.076 -4.188)"/><path d="M93.75,26.562h2.567v2.567H93.75Z" transform="translate(-16.192 -4.188)"/><path d="M77.522,22.188l-5.133,3.85a1.283,1.283,0,0,0,0,2.053l5.133,3.85,1.54-2.053L75.3,27.065l3.763-2.823Z" transform="translate(-12.284 -3.406)"/><path d="M3.125,39.062H5.692v2.567H3.125Z" transform="translate(0 -6.421)"/><path d="M3.125,32.812H5.692v2.567H3.125Z" transform="translate(0 -5.304)"/><path d="M3.125,51.562H5.692v2.567H3.125Z" transform="translate(0 -8.654)"/><path d="M3.125,45.312H5.692v2.567H3.125Z" transform="translate(0 -7.538)"/><path d="M3.125,64.062H5.692v2.567H3.125Z" transform="translate(0 -10.888)"/><path d="M3.125,57.812H5.692v2.567H3.125Z" transform="translate(0 -9.771)"/><path d="M15.625,26.562h2.567v2.567H15.625Z" transform="translate(-2.234 -4.188)"/><path d="M9.375,26.562h2.567v2.567H9.375Z" transform="translate(-1.117 -4.188)"/><path d="M3.125,26.562H5.692v2.567H3.125Z" transform="translate(0 -4.188)"/><path d="M20.915,31.94l5.133-3.85a1.283,1.283,0,0,0,0-2.053l-5.133-3.85-1.54,2.053,3.763,2.823-3.763,2.823Z" transform="translate(-2.904 -3.406)"/></g></svg>