<svg xmlns="http://www.w3.org/2000/svg" width="28.323" height="37.001" viewBox="0 0 28.323 37.001"><path d="M37.5,34.375h8.094v1.156H37.5Z" transform="translate(-28.25 -21.656)"/><path d="M37.5,46.875h5.781v1.156H37.5Z" transform="translate(-28.25 -29.531)"/><path d="M37.5,59.375h4.625v1.156H37.5Z" transform="translate(-28.25 -37.406)"/><path d="M24.59,31.938l-1.83,1.83-1.2-1.2-.818.818,1.2,1.2.818.818,2.648-2.648Z" transform="translate(-17.693 -20.121)"/><path d="M24.59,44.633l-1.83,1.83-1.2-1.2-.818.818,1.2,1.2.818.818,2.648-2.648Z" transform="translate(-17.693 -28.118)"/><path d="M24.59,57.133l-1.83,1.83-1.2-1.2-.818.815,1.2,1.2.818.818,2.648-2.648Z" transform="translate(-17.693 -35.993)"/><path d="M68.3,54.613a2.847,2.847,0,1,1-2.847-2.847A2.847,2.847,0,0,1,68.3,54.613" transform="translate(-44.069 -32.612)"/><path d="M65.2,47.492a1.156,1.156,0,0,0-.234-1.627l-.486-.353a1.154,1.154,0,0,1-.468-1.026l.052-.6a1.158,1.158,0,0,0-1.075-1.243l-.6-.035A1.156,1.156,0,0,1,61.44,42l-.289-.532a1.156,1.156,0,0,0-1.575-.462l-.52.289a1.159,1.159,0,0,1-1.127,0l-.52-.289a1.156,1.156,0,0,0-1.575.462L55.543,42a1.156,1.156,0,0,1-.948.61l-.6.035a1.158,1.158,0,0,0-1.075,1.243l.052.6a1.156,1.156,0,0,1-.457,1.029l-.486.353a1.156,1.156,0,0,0-.234,1.627l.367.474a1.156,1.156,0,0,1,.162,1.116l-.217.558a1.155,1.155,0,0,0,.682,1.494l.578.2a1.155,1.155,0,0,1,.737.853l.107.529L52.768,57.4l2.263-.726,1.445,1.934,1.292-4.247a1.138,1.138,0,0,0,1.393.055l1.362,4.191,1.422-1.925,2.284.717-1.477-4.533a.494.494,0,0,1,.026-.087L62.9,52.2a1.155,1.155,0,0,1,.737-.853l.578-.2a1.155,1.155,0,0,0,.682-1.494l-.217-.558a1.156,1.156,0,0,1,.162-1.116Zm-6.7,4.266a4,4,0,1,1,4-4,4,4,0,0,1-4,4Z" transform="translate(-37.109 -25.743)"/><path d="M33.313,34.181v-.65H32.156v.65a1.7,1.7,0,0,1-1.734,1.662H15.391a1.7,1.7,0,0,1-1.734-1.662V2.818a1.7,1.7,0,0,1,1.734-1.662h2.891a1.2,1.2,0,0,0,1.156,1.156h6.938a1.243,1.243,0,0,0,1.156-1.156h2.891a1.7,1.7,0,0,1,1.734,1.662V13.875h1.156V2.818A2.859,2.859,0,0,0,30.422,0H15.391A2.859,2.859,0,0,0,12.5,2.818V34.181A2.859,2.859,0,0,0,15.391,37H30.422A2.859,2.859,0,0,0,33.313,34.181Z" transform="translate(-12.5 0.001)"/></svg>