<svg xmlns="http://www.w3.org/2000/svg" width="46" height="46" viewBox="0 0 46 46"><defs><style>.a{fill:#dc053f;}</style></defs><path class="a" d="M-1380-5531a22.85,22.85,0,0,1-8.953-1.808,22.916,22.916,0,0,1-7.311-4.929,22.921,22.921,0,0,1-4.929-7.311A22.856,22.856,0,0,1-1403-5554a22.853,22.853,0,0,1,1.807-8.952,22.919,22.919,0,0,1,4.929-7.311,22.932,22.932,0,0,1,7.311-4.93A22.859,22.859,0,0,1-1380-5577a22.859,22.859,0,0,1,8.952,1.808,22.932,22.932,0,0,1,7.311,4.93,22.917,22.917,0,0,1,4.929,7.311A22.851,22.851,0,0,1-1357-5554a22.854,22.854,0,0,1-1.808,8.953,22.921,22.921,0,0,1-4.929,7.311,22.916,22.916,0,0,1-7.311,4.929A22.85,22.85,0,0,1-1380-5531Zm-12.459-13.361v0a15.55,15.55,0,0,0,8.435,2.463,15.853,15.853,0,0,0,6.713-1.422,14.822,14.822,0,0,0,4.9-3.675,16.182,16.182,0,0,0,4.03-10.545c0-.215-.006-.435-.02-.712a10.949,10.949,0,0,0,2.755-2.853,11.484,11.484,0,0,1-3.167.867,5.472,5.472,0,0,0,2.419-3.038,11.017,11.017,0,0,1-3.487,1.33,5.527,5.527,0,0,0-4.016-1.74,5.5,5.5,0,0,0-5.5,5.5,5.563,5.563,0,0,0,.129,1.253,15.383,15.383,0,0,1-6.361-1.708,15.62,15.62,0,0,1-4.97-4.043,5.487,5.487,0,0,0-.754,2.779,5.487,5.487,0,0,0,2.443,4.569,5.379,5.379,0,0,1-2.484-.678v.061a5.532,5.532,0,0,0,4.405,5.4,5.48,5.48,0,0,1-1.442.181,4.767,4.767,0,0,1-1.042-.095,5.55,5.55,0,0,0,5.139,3.831,11.114,11.114,0,0,1-6.818,2.345A10.377,10.377,0,0,1-1392.459-5544.361Z" transform="translate(1403 5577)"/></svg>