<svg xmlns="http://www.w3.org/2000/svg" width="24.661" height="37.57" viewBox="0 0 24.661 37.57"><defs><style>.a{fill:#0d0d0d;}</style></defs><path class="a" d="M33.1,31.668a.587.587,0,0,1-.452-.194L30.321,29.15a.64.64,0,0,1,.9-.9L33.1,30.118l5.228-5.228a.64.64,0,1,1,.9.9l-5.68,5.68a.708.708,0,0,1-.454.193Zm6.454,8.779H37.614v.645H39.55Zm-4.26,0H33.354v.645h1.936Zm-4.26,0H29.094v.645h1.936Zm-4.2,0h-.774v-.774h-.645v1.421h1.421Zm0-22.981H25.414v1.421h.645v-.774h.774Zm15.041.645h.774v.774h.645V17.464H41.874Zm0,22.983H43.3V39.673h-.645v.774h-.774Zm-15.817-5.94h-.645V37.09h.645Zm0-4.583h-.645v1.936h.645Zm0-4.52h-.645v1.936h.645Zm0-4.583h-.645V23.4h.645ZM43.231,35.153h-.645V37.09h.645Zm0-4.583h-.645v1.936h.645Zm0-4.52h-.645v1.936h.645Zm0-4.583h-.645V23.4h.645Zm-3.68-4H37.614v.645H39.55Zm-4.26,0H33.354v.645H35.29Zm-4.26,0H29.094v.645h1.936Zm15.622-1.549v25.37A3.608,3.608,0,0,1,43.038,44.9H25.608a3.608,3.608,0,0,1-3.615-3.615l0-25.37A3.608,3.608,0,0,1,25.606,12.3h2.841V11.72a1.8,1.8,0,0,1,1.807-1.807h.323a4.074,4.074,0,0,1,3.809-2.581A3.98,3.98,0,0,1,38,9.913h.323a1.8,1.8,0,0,1,1.807,1.807V12.3h2.841a3.625,3.625,0,0,1,3.679,3.615Zm-14.59-6h4.52a2.732,2.732,0,0,0-2.194-1.292,2.656,2.656,0,0,0-2.325,1.292Zm-2.323,4.2a.508.508,0,0,0,.516.516h8.135a.508.508,0,0,0,.516-.516V11.72a.508.508,0,0,0-.516-.516H30.255a.508.508,0,0,0-.516.516Zm15.622,1.807a2.314,2.314,0,0,0-2.323-2.323H40.2v.581a1.8,1.8,0,0,1-1.807,1.807H30.254a1.8,1.8,0,0,1-1.807-1.807v-.581H25.606a2.314,2.314,0,0,0-2.323,2.323v25.37a2.314,2.314,0,0,0,2.323,2.323h17.43a2.314,2.314,0,0,0,2.323-2.323Z" transform="translate(-21.992 -7.331)"/></svg>